<svg width="63" height="63" viewBox="0 0 63 63" fill="none" xmlns="http://www.w3.org/2000/svg">
<g clip-path="url(#clip0_18_1331)">
<path d="M27.0083 0.00181198C33.7228 0.00181198 40.4354 -0.00381469 47.1499 0.00368754C50.6047 0.00743865 53.3711 2.31625 53.9338 5.71476C54.0726 6.55876 54.0201 7.44215 54.0013 8.30491C53.9901 8.82444 54.1664 8.99699 54.6878 8.99699C55.6668 8.99699 56.6496 8.90321 57.6249 9.11703C60.7683 9.80723 62.989 12.4968 62.9909 15.704C63.0003 29.2249 63.0021 42.7477 62.9909 56.2686C62.9871 60.014 59.9994 62.9887 56.2389 62.9906C42.7405 62.9999 29.2421 62.9999 15.7456 62.9906C11.9588 62.9887 9.01044 60.0028 8.98794 56.1992C8.98419 55.6384 8.97856 55.0757 8.98794 54.5149C8.99356 54.1604 8.84165 54.0029 8.48529 54.0085C7.90012 54.0179 7.31494 54.0123 6.73164 54.0085C2.98615 53.9804 0.00964132 51.0114 0.00776577 47.2546C-0.00161203 33.7562 -0.00161203 20.2578 0.00776577 6.76132C0.00964132 2.97457 2.99365 0.0130653 6.79729 0.0055631C13.5343 -0.00569025 20.2713 0.00368754 27.0083 0.00181198ZM27.0083 4.59318C20.412 4.59318 13.8156 4.59693 7.21929 4.58943C6.29276 4.58943 5.5144 4.84825 4.97799 5.64162C4.61976 6.1724 4.59351 6.7782 4.59538 7.39339C4.59726 20.4454 4.59538 33.4993 4.59726 46.5513C4.59726 48.635 5.39249 49.419 7.5025 49.419C20.5095 49.419 33.5146 49.419 46.5216 49.419C48.6279 49.419 49.425 48.6332 49.425 46.5494C49.425 33.5199 49.425 20.4904 49.425 7.46091C49.425 5.37904 48.6279 4.59318 46.5197 4.59318C40.0172 4.59318 33.5146 4.59318 27.0102 4.59318H27.0083ZM58.407 36.0463C58.407 29.4481 58.4089 22.8499 58.407 16.2535C58.407 14.4455 57.5386 13.5865 55.7306 13.579C55.4962 13.579 55.2636 13.579 55.0291 13.579C54.3539 13.579 54.0157 13.9278 54.0145 14.6255C54.0145 25.365 54.0145 36.1026 54.0107 46.842C54.0107 47.354 54.0201 47.8792 53.9263 48.3781C53.2867 51.7578 50.5766 54.0066 47.1387 54.0085C36.4461 54.0141 25.7536 54.0085 15.0629 54.0141C13.3467 54.0141 13.5962 53.7722 13.5849 55.5033C13.5718 57.6096 14.3689 58.4048 16.4545 58.4048C29.4859 58.4048 42.5173 58.4048 55.5505 58.4048C57.6024 58.4048 58.4089 57.6021 58.4089 55.5596C58.4089 49.0552 58.4089 42.5507 58.4089 36.0463H58.407Z" fill="#BABABA"/>
<path d="M35.2268 29.3019C33.5895 29.3019 31.9521 29.3019 30.3147 29.3019C29.6408 29.3019 29.3032 29.6507 29.3019 30.3484C29.3019 33.7394 29.3076 37.1323 29.2944 40.5233C29.2907 41.5868 28.623 42.4326 27.6402 42.7065C26.6743 42.9765 25.6259 42.5771 25.0594 41.7312C24.7593 41.2829 24.705 40.7821 24.7068 40.257C24.7125 36.8885 24.6918 33.52 24.7237 30.1534C24.7293 29.4707 24.5211 29.2831 23.8497 29.2887C20.3874 29.3187 16.927 29.3112 13.4647 29.2944C12.3281 29.2887 11.3679 28.4128 11.2441 27.34C11.1053 26.1415 11.758 25.0987 12.8664 24.8005C13.1759 24.718 13.5135 24.7161 13.838 24.7161C17.1352 24.7105 20.4343 24.7124 23.7315 24.7124C24.3792 24.7124 24.7037 24.3973 24.705 23.7671C24.705 20.3517 24.6993 16.9363 24.7106 13.5228C24.7143 12.3618 25.4646 11.4615 26.5336 11.2665C27.704 11.0527 28.743 11.6454 29.1707 12.7519C29.3019 13.0914 29.2944 13.4384 29.2963 13.7891C29.2963 17.1576 29.3132 20.5261 29.2832 23.8927C29.2776 24.5379 29.4651 24.733 30.1141 24.7274C33.5763 24.6992 37.0367 24.7086 40.499 24.7199C41.57 24.7236 42.3896 25.3594 42.6953 26.361C42.9879 27.3231 42.6015 28.3678 41.7444 28.9436C41.3412 29.2137 40.8966 29.3112 40.4146 29.3094C38.6835 29.3019 36.9523 29.3075 35.2212 29.3075L35.2268 29.3019Z" fill="#BABABA"/>
</g>
<defs>
<clipPath id="clip0_18_1331">
<rect width="63" height="63" fill="white"/>
</clipPath>
</defs>
</svg>
