<svg width="89" height="89" viewBox="0 0 96 79" fill="none" xmlns="http://www.w3.org/2000/svg">
<path d="M48.9729 27.6506C48.6572 25.7004 47.7066 24.3228 46.6381 22.9868C45.8124 21.9527 46.083 20.7521 47.1862 20.3322C48.0744 19.9956 48.7092 20.4328 49.2609 21.0609C50.7666 22.7856 51.7657 24.7774 52.2618 27.0052C52.4526 27.8554 52.7024 28.0844 53.5663 27.668C54.4163 27.2585 55.3565 26.9358 56.2863 26.8282C57.4693 26.6894 57.3479 26.2001 56.9905 25.3708C55.5924 22.1297 54.2081 18.8817 52.862 15.6198C49.868 8.36726 53.8647 1.29171 61.6047 0.101463C66.0559 -0.582148 70.8713 2.24946 72.7933 6.7606C76.2453 14.8598 79.6522 22.9764 83.0799 31.086C85.0539 35.7533 87.0522 40.4068 88.9812 45.0914C89.4183 46.1567 89.8242 46.2226 90.6291 45.4662C91.4132 44.727 92.284 44.0781 93.1305 43.4119C93.6856 42.9746 94.2927 42.7838 94.9797 43.1516C95.6562 43.516 95.8956 44.1059 95.8227 44.8173C95.5486 47.4996 95.2676 50.182 94.9623 52.861C94.3378 58.3021 93.6266 63.7328 93.0854 69.1809C92.6205 73.8551 90.1365 77.0823 86.008 78.0401C85.2274 78.2205 84.4398 78.2066 83.6523 78.2066C59.8527 78.2101 36.0497 78.1546 12.2501 78.2552C7.3514 78.276 3.33739 74.622 2.86556 69.691C2.08843 61.557 1.006 53.4544 0.0380601 45.3412C-0.0625504 44.505 -0.00704088 43.7485 0.745803 43.2314C1.5264 42.697 2.23068 43.0024 2.93148 43.4709C3.58024 43.9046 4.32268 44.8832 4.87777 44.6021C5.58898 44.2447 5.15532 43.0996 5.19001 42.3014C5.46409 35.8297 5.70694 29.3614 5.94979 22.8897C5.97755 22.1401 6.25509 21.5433 6.76855 21.0054C9.46769 18.1842 12.1287 15.3283 14.8486 12.5244C15.5668 11.7853 15.9068 10.9976 15.8964 9.97392C15.8825 8.43666 15.8964 6.89593 16.0074 5.36561C16.1184 3.85612 16.6665 3.405 18.1826 3.45706C22.8281 3.61668 27.4735 3.79366 32.1189 3.98104C33.4165 4.0331 33.9889 4.62301 33.9681 5.96247C33.9403 7.66283 33.8466 9.36318 33.7426 11.0635C33.6975 11.8235 33.9438 12.3995 34.4677 12.9582C37.2188 15.9043 39.8902 18.9198 42.683 21.8209C43.7134 22.8897 44.1228 24.0174 43.8348 25.4228C43.6336 26.4083 43.6787 26.9636 45.004 26.8352C46.2738 26.7102 47.5435 27.1162 48.9694 27.6541L48.9729 27.6506ZM92.1695 48.4366C90.532 49.776 89.1442 50.8726 87.7981 52.0247C86.8302 52.854 85.9351 52.9026 84.8874 52.1427C82.5664 50.4631 80.1795 48.8738 77.8585 47.1908C77.1785 46.6981 76.6894 46.6564 75.992 47.1631C73.7751 48.7767 71.5062 50.3174 69.2615 51.8893C67.7003 52.9824 67.343 52.9998 65.813 51.9414C63.6933 50.477 61.5388 49.0612 59.4988 47.4927C58.4407 46.6807 57.6809 46.7362 56.654 47.5066C54.5967 49.0543 52.4457 50.4735 50.3329 51.9518C48.848 52.9894 48.5184 53.0032 46.9989 51.9518C44.7473 50.3902 42.4853 48.8356 40.2684 47.222C39.5572 46.705 39.0402 46.6599 38.3013 47.1978C36.0219 48.8634 33.6628 50.425 31.373 52.0767C30.3114 52.8436 29.3851 52.8471 28.3165 52.0663C26.1725 50.4944 23.9348 49.0508 21.8046 47.465C20.8575 46.7605 20.1602 46.6946 19.1783 47.4337C16.9892 49.082 14.6925 50.5846 12.4617 52.1773C11.4834 52.8748 10.5952 52.8957 9.61687 52.1739C8.18057 51.112 6.70958 50.1022 5.23511 49.089C4.84655 48.8218 4.46839 48.218 3.97922 48.5233C3.60106 48.7593 3.81963 49.3805 3.87167 49.8212C4.61063 56.2513 5.35654 62.6814 6.11979 69.108C6.28285 70.4718 6.52223 71.8147 7.46589 72.9251C8.85015 74.5491 10.6507 75.0419 12.6976 75.0419C34.8805 75.0315 57.0669 75.0349 79.2497 75.0349C80.8283 75.0349 82.4068 75.0696 83.9854 75.0211C86.9655 74.9308 89.2761 73.0396 89.6299 70.1942C90.5146 63.077 91.2987 55.9494 92.1695 48.4366ZM68.0473 48.5858C68.5226 48.5546 68.8001 48.218 69.1262 47.9924C71.2425 46.5245 73.3657 45.0636 75.4508 43.5541C76.4292 42.8462 77.2861 42.8115 78.2818 43.5299C80.6097 45.2024 82.9758 46.8195 85.3384 48.4435C85.6853 48.683 86.0184 49.1896 86.5249 48.7836C87.028 48.3811 86.6359 47.9369 86.4729 47.5448C84.9325 43.8665 83.3609 40.202 81.8413 36.5168C81.5568 35.8331 81.2619 35.5902 80.5507 35.9511C79.9228 36.2704 79.2636 36.5341 78.5975 36.7631C76.0128 37.6515 73.2859 36.4404 72.3076 33.9905C71.3119 31.499 72.4013 28.7645 74.8714 27.5986C75.5098 27.2967 76.1655 27.0364 76.8212 26.7762C77.3555 26.5645 77.4908 26.2418 77.2549 25.7039C76.6581 24.3332 76.0857 22.9521 75.5237 21.5675C75.3224 21.0713 75.038 20.9637 74.5523 21.172C73.789 21.5016 73.0292 21.8452 72.2382 22.0881C69.827 22.8307 67.2875 21.6092 66.2848 19.2669C65.2961 16.9627 66.2502 14.3081 68.4289 13.0207C69.3309 12.4863 70.9199 12.5626 71.0482 11.4626C71.1627 10.484 70.3405 9.39441 69.9311 8.35338C69.8999 8.27703 69.8583 8.20416 69.8236 8.12782C67.9154 4.00186 63.7071 2.27375 59.6862 3.96369C55.7901 5.60505 54.0971 10.0225 55.8248 14.2179C57.4658 18.212 59.1866 22.1783 60.8415 26.1654C61.119 26.8317 61.5249 27.2308 62.1876 27.5118C65.0949 28.7437 67.0446 30.9334 68.2381 33.8205C70.0629 38.2414 70.1601 42.697 68.474 47.1839C68.304 47.635 68.0126 48.0549 68.0403 48.5927L68.0473 48.5858ZM21.9989 40.8544C21.9989 41.3714 22.0267 41.9961 21.992 42.6137C21.9503 43.3008 22.1793 43.7901 22.7622 44.1892C24.8888 45.6397 27.0017 47.111 29.0937 48.6066C29.6592 49.0092 30.1032 48.9987 30.6549 48.5927C31.8587 47.7079 33.0869 46.8577 34.3324 46.0283C34.9395 45.6258 35.0748 45.1712 34.9152 44.4494C34.4607 42.4159 34.3081 40.3478 34.6134 38.2726C35.1615 34.5596 36.4174 31.1936 39.4253 28.7298C40.8582 27.5569 41.0663 24.9301 39.8 23.5524C37.4374 20.988 35.0505 18.4444 32.7295 15.8419C32.1606 15.2034 31.824 15.2346 31.2447 15.7794C28.6427 18.2224 26.0094 20.6341 23.3762 23.0458C22.9079 23.4726 22.7309 23.9689 22.7032 24.5831C22.4777 29.9721 22.2383 35.3577 21.9954 40.8544H21.9989ZM37.7843 43.3945C39.4808 42.7664 39.5155 42.7595 40.9171 43.7276C43.2069 45.31 45.5071 46.875 47.7552 48.5129C48.456 49.023 48.9382 48.9883 49.6147 48.499C51.9357 46.8195 54.3157 45.2233 56.6436 43.5507C57.6185 42.8497 58.4893 42.8011 59.478 43.5333C61.0149 44.668 62.6178 45.7091 64.1686 46.8265C64.7132 47.2186 64.9943 47.2116 65.2475 46.5315C66.9093 42.0863 66.833 37.7521 64.46 33.5672C63.6586 32.1514 62.4617 31.1173 60.9456 30.5239C57.8475 29.3093 55.0616 30.0624 52.5637 32.0577C51.5333 32.8801 50.6625 32.9321 49.7084 32.0334C49.41 31.7488 49.0596 31.5129 48.7162 31.2838C45.3822 29.0595 41.4861 29.9756 39.5849 33.5151C37.9474 36.5619 37.538 39.8689 37.7843 43.391V43.3945ZM8.42342 45.6466C8.04527 47.5899 9.46422 47.8536 10.2899 48.5754C10.7652 48.9918 11.1989 49.0091 11.7332 48.6309C13.7905 47.1596 15.8686 45.716 17.9502 44.2724C18.3873 43.9671 18.6337 43.6131 18.6579 43.0475C18.8869 37.2871 19.1263 31.5267 19.3865 25.7698C19.4247 24.9578 19.2165 24.5588 18.3006 24.5484C15.938 24.5137 13.5788 24.3783 11.2162 24.3089C9.31851 24.2534 9.31504 24.2673 9.12423 26.1273C9.11035 26.2522 9.09994 26.3736 9.093 26.4986C8.86403 33.005 8.63852 39.5115 8.42342 45.6466ZM11.4209 20.8562C14.3456 21.0401 16.9892 21.224 19.6467 21.2067C20.2677 21.2032 20.7603 21.0401 21.2148 20.6133C23.1507 18.7949 25.1144 17.0078 27.0572 15.193C27.2792 14.9882 27.6435 14.8355 27.5464 14.3428C24.5974 13.9021 21.593 14.2421 18.6336 13.8674C18.2867 13.8223 17.9814 13.9611 17.7386 14.2179C15.6847 16.3763 13.6343 18.5347 11.4244 20.8562H11.4209ZM22.7136 7.10761C22.7136 7.02086 22.7136 6.93064 22.7136 6.84388C22.5471 6.84388 22.3805 6.84388 22.214 6.84388C19.3032 6.7953 19.3275 6.79877 19.1159 9.65467C19.0569 10.4528 19.3483 10.72 20.0838 10.6888C22.6997 10.5881 25.3052 10.9247 27.9176 10.9317C30.9012 10.9421 30.5404 11.5146 30.6202 8.21804C30.641 7.43033 30.3704 7.08679 29.5516 7.0972C27.2723 7.12843 24.9895 7.10761 22.7101 7.10761H22.7136ZM76.9704 33.7025C78.0424 33.6852 80.006 32.6927 79.9748 32.1895C79.9297 31.4539 78.8854 29.6321 78.5108 29.6286C77.1681 29.6217 75.1386 31.1763 75.1871 32.1722C75.2322 33.0709 75.9851 33.7199 76.9669 33.7025H76.9704ZM70.8227 18.9511C71.7976 18.9719 73.7682 18.0246 73.7751 17.5318C73.7855 16.9384 72.6823 14.9605 72.3319 14.9431C71.128 14.8841 69.1783 16.3312 69.1713 17.2958C69.1644 18.2224 69.8687 18.9303 70.8193 18.9511H70.8227Z" fill="url(#paint0_linear_20_1342)"/>
<defs>
<linearGradient id="paint0_linear_20_1342" x1="47.9176" y1="0" x2="47.9176" y2="78.2553" gradientUnits="userSpaceOnUse">
<stop offset="0.705" stop-color="#0098FD"/>
<stop offset="1" stop-color="#6FE3ED"/>
</linearGradient>
</defs>
</svg>
