<svg width="89" height="89" viewBox="0 0 89 88" fill="none" xmlns="http://www.w3.org/2000/svg">
<path d="M0 47.3878C0.375788 45.9244 1.20391 44.7523 2.31503 43.7385C3.14316 42.9816 3.90866 42.1604 4.71591 41.3806C7.25828 38.9263 10.9837 38.9057 13.5098 41.376C17.1679 44.9564 20.8098 48.5575 24.4239 52.1839C25.0015 52.7642 25.3193 52.794 25.9178 52.1976C34.8555 43.321 43.8141 34.4628 52.7936 25.6252C53.4083 25.0196 53.3317 24.7077 52.7588 24.148C49.1957 20.6731 45.6675 17.1637 42.1323 13.6635C39.2327 10.7918 39.242 7.24579 42.1509 4.35802C42.8445 3.66991 43.5682 3.00704 44.2316 2.28911C45.2523 1.18355 46.4469 0.37846 47.9222 0H50.5272C52.6729 0.541312 54.0253 2.1469 55.4913 3.60339C56.8414 4.9475 56.8553 4.95668 58.1775 3.62404C59.4418 2.35104 60.6921 1.10097 62.5988 0.782151C64.6657 0.435803 66.4356 0.986294 67.9596 2.35563C68.7089 3.02768 69.4187 3.74561 70.11 4.4773C70.4788 4.86723 70.7293 4.84429 71.0935 4.47271C72.2209 3.32357 73.3737 2.19507 74.5266 1.07116C75.6354 -0.00917171 76.5587 -0.00917477 77.6721 1.08951C81.0519 4.42225 84.4293 7.75957 87.7998 11.1038C88.9342 12.23 88.9226 13.1337 87.7743 14.2783C86.7166 15.3357 85.6727 16.4114 84.5732 17.4229C84.0327 17.9206 83.9352 18.2555 84.55 18.7693C85.2319 19.3404 85.849 19.9941 86.4544 20.6456C88.8483 23.2237 88.853 26.5885 86.4591 29.1506C85.7933 29.8639 85.0951 30.5543 84.376 31.2149C83.977 31.5819 84.0118 31.8319 84.3876 32.1874C85.3062 33.059 86.2039 33.9513 87.09 34.855C89.6463 37.4583 89.6347 41.0961 87.0668 43.688C86.1761 44.5872 85.2737 45.4748 84.3667 46.3602C81.5947 49.0667 77.9505 49.0736 75.2017 46.3602C71.5946 42.805 67.9875 39.252 64.4105 35.6693C63.8793 35.1371 63.5917 35.1165 63.0419 35.6601C54.0787 44.5573 45.0969 53.4385 36.0988 62.3037C35.5421 62.8519 35.5096 63.1546 36.0872 63.7189C39.6735 67.2122 43.2226 70.7422 46.7786 74.2676C49.6481 77.1118 49.6504 80.667 46.7902 83.5135C45.874 84.4264 44.96 85.3461 44.0252 86.2407C41.5942 88.5711 37.8618 88.5894 35.4076 86.2774C34.5075 85.4287 33.5982 84.5823 32.7771 83.6603C32.1948 83.0043 31.819 83.0822 31.2901 83.6947C30.7288 84.3461 30.0932 84.9378 29.453 85.5159C26.8758 87.8463 23.4844 87.8531 20.9165 85.5296C20.1905 84.8736 19.4946 84.1832 18.8265 83.4699C18.4391 83.0547 18.177 83.0593 17.7803 83.4653C16.6576 84.6213 15.5047 85.7452 14.3495 86.8691C13.2987 87.8921 12.292 87.9196 11.2435 86.8898C7.81499 83.5249 4.39811 80.1463 0.995137 76.754C-0.00696417 75.7539 0.0255221 74.747 1.02066 73.7469C2.17818 72.584 3.33802 71.4257 4.52337 70.2903C4.90844 69.921 4.90381 69.6733 4.5141 69.3178C3.85531 68.7168 3.23363 68.0746 2.60499 67.4438C-0.00464389 64.8198 0.00231907 61.1935 2.62356 58.5604C3.171 58.0099 3.68829 57.4181 4.29141 56.9341C4.98035 56.3813 4.88061 55.9891 4.26357 55.4661C3.60478 54.9111 3.04806 54.239 2.40783 53.6633C1.26655 52.638 0.43378 51.4292 0 49.9613V47.3855V47.3878ZM49.2166 3.56441C48.4511 3.58964 47.8063 3.85571 47.2704 4.39702C46.4817 5.19522 45.6768 5.97737 44.8811 6.7664C43.2226 8.40869 43.2249 9.64041 44.8974 11.2942C54.756 21.0424 64.6123 30.7906 74.471 40.5365C75.4522 41.5067 76.4334 42.4793 77.417 43.4495C79.2147 45.2248 80.3606 45.2179 82.1816 43.4197C82.8357 42.7728 83.4922 42.126 84.144 41.4792C85.7307 39.9057 85.726 38.6648 84.1255 37.0799C73.6544 26.7261 63.1834 16.3701 52.7101 6.01637C52.1162 5.42918 51.5201 4.84887 50.9285 4.25939C50.453 3.7846 49.8638 3.59193 49.2166 3.5667V3.56441ZM45.2616 78.972C45.2314 78.0774 44.8023 77.4031 44.1829 76.7929C38.8987 71.5817 33.6261 66.3612 28.3488 61.1453C22.6424 55.5028 16.9383 49.8581 11.2296 44.2202C9.79368 42.8027 8.45058 42.805 7.01238 44.211C6.14946 45.0551 5.28191 45.8969 4.43755 46.7616C3.28699 47.9382 3.26843 49.342 4.42131 50.4842C15.5418 61.4917 26.667 72.4923 37.7992 83.4882C39.0147 84.6901 40.3926 84.6878 41.6243 83.5135C42.5615 82.6189 43.4661 81.6946 44.3894 80.7886C44.9043 80.2839 45.1781 79.6715 45.2616 78.9742V78.972ZM32.9186 60.3059C33.0577 60.1866 33.2387 60.049 33.4011 59.8907C42.4664 50.9292 51.527 41.9655 60.6016 33.0132C61.0307 32.5888 61.04 32.3251 60.6016 31.9076C59.3095 30.6782 58.0268 29.435 56.7996 28.1414C56.2568 27.5702 55.9391 27.5633 55.3684 28.1322C49.7014 33.777 44.0043 39.3942 38.3165 45.0184C35.0016 48.2961 31.6868 51.5737 28.3743 54.8514C28.0751 55.1473 27.6691 55.3927 28.1818 55.8836C29.613 57.2598 31.0118 58.6682 32.4245 60.0627C32.5451 60.182 32.6634 60.3173 32.9186 60.3059ZM25.1871 83.5777C25.8876 83.5892 26.4907 83.3598 26.9895 82.8689C27.5856 82.284 28.1447 81.6579 28.7826 81.1234C29.3927 80.6119 29.3602 80.2771 28.7919 79.7174C21.9395 72.9785 15.1127 66.2144 8.27893 59.4572C8.19775 59.3769 8.10728 59.3035 8.03537 59.2141C7.73149 58.8379 7.46473 58.8402 7.12374 59.2072C6.53686 59.8379 5.8943 60.4182 5.29119 61.0375C4.0316 62.3289 4.00377 63.7097 5.27727 64.9735C11.2829 70.9325 17.3048 76.8732 23.3174 82.8231C23.837 83.3368 24.454 83.5938 25.1894 83.5777H25.1871ZM63.7193 4.33738C62.9886 4.31444 62.3994 4.5851 61.9029 5.06448C61.2604 5.68378 60.6596 6.34895 59.9846 6.92925C59.4673 7.37423 59.5647 7.65407 60.0078 8.08757C62.4411 10.4547 64.8443 12.8516 67.2591 15.2393C71.699 19.6294 76.1527 24.0035 80.5601 28.4235C81.198 29.0611 81.5622 29.0542 82.1097 28.3937C82.5829 27.8202 83.1744 27.3431 83.6894 26.8018C84.8538 25.577 84.8515 24.2123 83.6778 22.9874C83.0213 22.3039 82.3324 21.6479 81.6573 20.9804C76.3986 15.7829 71.1399 10.5854 65.8858 5.3833C65.2734 4.77777 64.6239 4.28462 63.7193 4.33738ZM15.5418 80.4514C15.4955 80.1234 15.2472 79.9514 15.0478 79.7541C12.9252 77.6508 10.8051 75.5452 8.67096 73.4487C7.46937 72.2675 7.75468 72.2354 6.52294 73.4785C5.94302 74.0611 4.93164 74.5359 4.94323 75.2974C4.95251 75.9993 5.93605 76.4787 6.50205 77.0429C8.40883 78.9559 10.3365 80.8505 12.2641 82.7428C12.4891 82.963 12.7142 83.3712 13.1108 82.9905C13.8763 82.2519 14.6209 81.495 15.3702 80.7404C15.4467 80.6624 15.4885 80.5477 15.5442 80.4514H15.5418ZM76.0507 4.803C75.988 4.84658 75.8813 4.89704 75.8025 4.97503C75.0625 5.69983 74.3295 6.43382 73.5872 7.15633C73.2276 7.50498 73.4364 7.75269 73.7031 8.01876C76.0994 10.3836 78.5002 12.7461 80.8802 15.1246C81.2375 15.4802 81.4648 15.4595 81.7895 15.1063C82.4135 14.4296 83.0538 13.7691 83.7242 13.136C84.1092 12.7713 84.0907 12.519 83.7172 12.1543C81.3303 9.81932 78.9642 7.46598 76.5888 5.12183C76.4496 4.9842 76.3267 4.80988 76.0507 4.8053V4.803Z" fill="url(#paint0_linear_20_1353)"/>
<defs>
<linearGradient id="paint0_linear_20_1353" x1="44.5" y1="0" x2="44.5" y2="88" gradientUnits="userSpaceOnUse">
<stop offset="0.705" stop-color="#0098FD"/>
<stop offset="1" stop-color="#6FE3ED"/>
</linearGradient>
</defs>
</svg>
