<svg width="89" height="89" viewBox="0 0 89 89" fill="none" xmlns="http://www.w3.org/2000/svg">
<path d="M88.4909 41.2631V49.0343C88.1431 49.5381 87.7682 50.0802 87.1132 50.1164C85.9952 50.1796 85.9026 50.828 85.9048 51.7474C85.9297 60.6663 85.9207 69.5874 85.9184 78.5063C85.9184 78.8813 85.9297 79.2563 85.9003 79.6268C85.7942 80.9845 85.347 81.5176 83.9963 81.7774C83.4046 81.8926 83.1697 82.1547 83.181 82.7579C83.2081 84.1088 83.2104 85.462 83.1787 86.8152C83.1449 88.2655 82.4086 88.9794 80.9699 88.9907C79.0704 89.0042 77.1732 89.002 75.2737 88.9907C73.774 88.9816 73.0807 88.2768 73.0626 86.7497C73.0468 85.4258 73.0378 84.102 73.0649 82.7782C73.0784 82.1118 72.8141 81.8475 72.1524 81.8497C65.5935 81.861 59.0346 81.861 52.4757 81.8497C51.7913 81.8497 51.5745 82.1615 51.5881 82.8053C51.6152 84.041 51.5994 85.279 51.5926 86.517C51.5836 88.3672 50.9534 88.9952 49.0924 88.9952C33.5579 88.9952 18.0257 88.9952 2.49121 88.9952C0.609815 88.9952 0.0158048 88.3988 0.0158048 86.5147C0.0158048 58.6625 0.0180686 30.8103 0 2.95806C0 1.92114 0.248439 1.09658 1.11799 0.5047H53.0878C54.1854 1.1011 54.3413 2.11317 54.3413 3.23367C54.3322 15.0848 54.3345 26.9382 54.3368 38.7894C54.3368 40.0002 54.4 40.0635 55.597 40.0657C57.8398 40.0703 60.0848 40.0657 62.3276 40.0657C70.1219 40.0657 77.9163 40.068 85.7106 40.0657C86.815 40.0657 87.8472 40.1945 88.4841 41.2608L88.4909 41.2631ZM3.77859 35.1296C3.77859 45.1148 3.77859 55.1022 3.77859 65.0873C3.77859 66.2214 3.80796 66.2507 4.94176 66.2507C11.2996 66.2507 17.6575 66.2507 24.0177 66.2507C25.2283 66.2507 25.2396 66.2417 25.2396 65.0557C25.2396 45.1713 25.2396 25.2846 25.2396 5.40013C25.2396 4.20056 25.235 4.19604 24.0312 4.19604C17.7027 4.19604 11.3719 4.19604 5.04339 4.19604C4.2032 4.19604 3.78236 4.60719 3.78085 5.4295C3.78085 15.3288 3.78085 25.2281 3.78085 35.1274L3.77859 35.1296ZM29.0927 44.724C29.0927 57.7589 29.0927 70.7915 29.0927 83.8264C29.0927 85.2338 29.0972 85.2361 30.4636 85.2361C33.3682 85.2361 36.2749 85.2519 39.1795 85.2316C41.8062 85.2135 41.4087 85.6179 41.4832 82.9544C41.5058 82.1434 41.1986 81.8249 40.4285 81.7322C39.5273 81.6238 38.9807 81.0636 38.8452 80.1599C38.7729 79.6787 38.7391 79.1885 38.7391 78.7028C38.7323 69.7252 38.7345 60.7476 38.7345 51.7723C38.7345 50.837 38.2783 50.3318 37.3658 50.2565C36.0694 50.148 35.3376 49.6465 35.236 48.5373C35.0282 46.2737 35.0147 43.9988 35.2496 41.7352C35.3467 40.7954 35.961 40.2849 36.9209 40.1606C37.4042 40.0974 37.8943 40.0748 38.3822 40.0748C41.9485 40.068 45.517 40.0748 49.0833 40.0703C50.4272 40.0703 50.461 40.0364 50.461 38.7351C50.461 27.6295 50.461 16.5216 50.461 5.41594C50.461 4.21637 50.4407 4.1983 49.2595 4.1983C43.0462 4.1983 36.8328 4.1983 30.6195 4.1983C29.6001 4.1983 29.0897 4.70132 29.0882 5.70736C29.0882 18.7129 29.0882 31.7184 29.0882 44.724H29.0927ZM62.244 77.9935C68.489 77.9935 74.7317 77.9799 80.9766 78.0093C81.8123 78.0138 82.0743 77.7337 82.0675 76.9091C82.0336 73.5137 82.0336 70.116 82.0675 66.7206C82.0743 65.9096 81.8146 65.5956 80.9789 65.5956C68.5477 65.6114 56.1165 65.6114 43.6853 65.5956C42.8519 65.5956 42.5899 65.9051 42.5967 66.7184C42.6283 70.0867 42.608 73.4527 42.6102 76.821C42.6102 77.9596 42.6441 77.9912 43.7712 77.9912C49.928 77.9912 56.0872 77.9912 62.244 77.9912V77.9935ZM62.3344 61.7574C68.5477 61.7574 74.761 61.7439 80.9744 61.7733C81.8055 61.7778 82.0788 61.5089 82.0698 60.6799C82.0337 57.5736 82.0337 54.4651 82.0698 51.3589C82.0788 50.5275 81.792 50.2587 80.9699 50.261C68.5432 50.279 56.1188 50.279 43.6921 50.261C42.8632 50.261 42.5877 50.5411 42.599 51.3657C42.6351 54.4448 42.6102 57.5217 42.6148 60.6008C42.6148 61.7281 42.6486 61.7597 43.7847 61.7597C49.9687 61.7597 56.1527 61.7597 62.3366 61.7597L62.3344 61.7574ZM14.5068 85.2383C17.7253 85.2383 20.946 85.2157 24.1645 85.2542C25.0001 85.2632 25.2599 84.9853 25.2531 84.1585C25.2215 79.8459 25.2215 75.5333 25.2531 71.2207C25.2599 70.4007 24.9979 70.107 24.1667 70.1093C17.7275 70.1319 11.2884 70.1319 4.84916 70.1093C4.01574 70.107 3.75827 70.3984 3.76278 71.2207C3.7944 75.5333 3.7944 79.8459 3.76278 84.1585C3.75601 84.9853 4.01123 85.2654 4.84916 85.2542C8.06763 85.2157 11.2883 85.2383 14.5068 85.2383ZM61.8285 46.3979C68.9926 46.3979 76.1568 46.3979 83.321 46.3979C83.6079 46.3979 83.897 46.3934 84.1838 46.3889C84.43 46.3844 84.6287 46.2963 84.7439 46.0591C85.2882 44.9295 84.6626 43.9152 83.4136 43.9152C69.0559 43.9152 54.6981 43.9152 40.3404 43.9152C40.0806 43.9152 39.8232 43.9197 39.5634 43.9265C39.3489 43.9333 39.1772 44.0146 39.0665 44.2112C38.4974 45.2142 39.1343 46.3957 40.2478 46.3957C47.4413 46.3957 54.6349 46.3957 61.8262 46.3957L61.8285 46.3979ZM47.8343 83.6231C47.8343 83.6231 47.8276 83.6231 47.8253 83.6231C47.8253 83.2503 47.8343 82.8776 47.823 82.5048C47.814 82.1908 47.692 81.913 47.3465 81.8926C46.8338 81.8655 46.303 81.8181 45.8084 81.9175C45.185 82.0417 45.2934 82.6404 45.3522 83.0561C45.4515 83.7722 44.8824 84.7368 45.7722 85.166C47.0032 85.7602 47.8366 85.1412 47.8366 83.7925C47.8366 83.736 47.8366 83.6773 47.8366 83.6208L47.8343 83.6231ZM76.8322 83.5327C76.8322 83.5327 76.8389 83.5327 76.8434 83.5327C76.8434 83.9055 76.8344 84.2782 76.8457 84.6487C76.8547 84.9288 76.9699 85.1864 77.2748 85.2022C77.8146 85.2293 78.4425 85.3761 78.8852 85.1615C79.7502 84.7413 79.2285 83.8377 79.3076 83.1487C79.3595 82.7104 79.5086 82.1298 78.8649 81.9017C77.5685 81.4408 76.8322 81.9401 76.8299 83.2729C76.8299 83.3588 76.8299 83.4446 76.8299 83.5305L76.8322 83.5327Z" fill="url(#paint0_linear_20_1346)"/>
<path d="M18.0099 32.9609C18.0099 32.0144 18.0189 31.0678 18.0076 30.1213C18.0008 29.5588 18.2154 29.2673 18.8184 29.2854C19.5638 29.308 20.3091 29.3103 21.0544 29.2854C21.6575 29.2651 21.8698 29.5633 21.8698 30.1213C21.8653 32.0144 21.863 33.9075 21.872 35.8006C21.8743 36.397 21.6597 36.7065 21.0115 36.6749C20.2955 36.641 19.5773 36.641 18.8614 36.6749C18.2177 36.7042 17.9941 36.406 18.0053 35.8029C18.0234 34.8563 18.0099 33.9098 18.0099 32.9632V32.9609Z" fill="url(#paint1_linear_20_1346)"/>
<path d="M36.2365 33.0332C36.2365 33.982 36.223 34.9331 36.2433 35.8819C36.2546 36.415 36.0694 36.641 35.5025 36.6748C32.485 36.8556 32.4851 36.8691 32.4851 33.8374C32.4851 32.6288 32.5076 31.4202 32.4783 30.2116C32.4625 29.5678 32.6635 29.2447 33.3591 29.2809C34.0773 29.317 34.7978 29.3012 35.5161 29.2899C36.022 29.2809 36.2478 29.5 36.241 30.0128C36.2252 31.0204 36.2365 32.0257 36.2365 33.0332Z" fill="url(#paint2_linear_20_1346)"/>
<path d="M62.3118 72.7569C61.6229 72.7569 60.9341 72.7456 60.2452 72.7614C59.7957 72.7727 59.5202 72.6078 59.5157 72.1334C59.5066 71.3021 59.5066 70.4707 59.5157 69.6394C59.5202 69.1695 59.7867 69.0001 60.2407 69.0046C61.6455 69.0181 63.0526 69.0181 64.4574 69.0046C64.9362 69.0001 65.1418 69.2305 65.1463 69.6755C65.1531 70.4775 65.1508 71.2817 65.1486 72.086C65.1486 72.601 64.8662 72.7795 64.3761 72.7637C63.6872 72.7434 62.9984 72.7592 62.3095 72.7569H62.3118Z" fill="url(#paint3_linear_20_1346)"/>
<path d="M62.3795 53.6473C63.0684 53.6473 63.7573 53.6564 64.4461 53.6451C64.9137 53.636 65.1418 53.8619 65.1486 54.3115C65.1576 55.1428 65.1553 55.9764 65.1486 56.8078C65.1463 57.2754 64.8707 57.472 64.4326 57.472C63.0277 57.472 61.6207 57.472 60.2158 57.472C59.7099 57.472 59.4999 57.1873 59.4999 56.7084C59.4999 55.9335 59.4999 55.1587 59.4999 54.3838C59.4999 53.8416 59.7777 53.6225 60.3129 53.6406C61.0018 53.6631 61.6907 53.6451 62.3795 53.6451C62.3795 53.6451 62.3795 53.6473 62.3795 53.6496V53.6473Z" fill="url(#paint4_linear_20_1346)"/>
<path d="M14.5068 79.123C13.845 79.123 13.1855 79.1162 12.5238 79.123C11.9907 79.1298 11.7333 78.9039 11.7468 78.3481C11.7671 77.5733 11.7649 76.7961 11.7468 76.0213C11.7355 75.5152 11.9659 75.2735 12.4605 75.2713C13.8383 75.269 15.2182 75.2713 16.596 75.269C17.0929 75.269 17.339 75.5175 17.3413 76.0077C17.3458 76.812 17.3481 77.6162 17.3413 78.4204C17.3368 78.9219 17.059 79.132 16.5689 79.1253C15.88 79.114 15.1889 79.123 14.5 79.123H14.5068Z" fill="url(#paint5_linear_20_1346)"/>
<defs>
<linearGradient id="paint0_linear_20_1346" x1="44.2455" y1="0.5047" x2="44.2455" y2="89" gradientUnits="userSpaceOnUse">
<stop offset="0.705" stop-color="#0098FD"/>
<stop offset="1" stop-color="#6FE3ED"/>
</linearGradient>
<linearGradient id="paint1_linear_20_1346" x1="19.9385" y1="29.2844" x2="19.9385" y2="36.6771" gradientUnits="userSpaceOnUse">
<stop offset="0.705" stop-color="#0098FD"/>
<stop offset="1" stop-color="#6FE3ED"/>
</linearGradient>
<linearGradient id="paint2_linear_20_1346" x1="34.3606" y1="29.2781" x2="34.3606" y2="36.7402" gradientUnits="userSpaceOnUse">
<stop offset="0.705" stop-color="#0098FD"/>
<stop offset="1" stop-color="#6FE3ED"/>
</linearGradient>
<linearGradient id="paint3_linear_20_1346" x1="62.3299" y1="69.0045" x2="62.3299" y2="72.7646" gradientUnits="userSpaceOnUse">
<stop offset="0.705" stop-color="#0098FD"/>
<stop offset="1" stop-color="#6FE3ED"/>
</linearGradient>
<linearGradient id="paint4_linear_20_1346" x1="62.3272" y1="53.6395" x2="62.3272" y2="57.472" gradientUnits="userSpaceOnUse">
<stop offset="0.705" stop-color="#0098FD"/>
<stop offset="1" stop-color="#6FE3ED"/>
</linearGradient>
<linearGradient id="paint5_linear_20_1346" x1="14.5459" y1="75.269" x2="14.5459" y2="79.1254" gradientUnits="userSpaceOnUse">
<stop offset="0.705" stop-color="#0098FD"/>
<stop offset="1" stop-color="#6FE3ED"/>
</linearGradient>
</defs>
</svg>
