<svg width="246" height="37" viewBox="0 0 246 37" fill="none" xmlns="http://www.w3.org/2000/svg">
<g clip-path="url(#clip0_49_3)">
<path d="M3.8793 15.8708C3.8793 18.0906 3.85037 20.313 3.88982 22.5328C3.92138 24.2767 4.27907 25.9675 5.04968 27.536C5.76242 28.9875 6.64349 30.3326 8.06372 31.178C9.25777 31.8878 10.5412 32.3956 11.9536 32.4408C13.2502 32.4833 14.5442 32.5019 15.7908 32.042C17.2058 31.5183 18.413 30.7288 19.3388 29.4899C20.1909 28.3468 20.8037 27.1 21.1851 25.7336C21.4744 24.6968 21.6927 23.6414 21.6953 22.5594C21.7032 18.0188 21.7006 13.4756 21.7006 8.93496C21.7006 7.45953 22.7736 6.68061 24.1728 7.09798C24.7225 7.26015 25.2406 7.39839 25.4747 8.01248C25.5747 8.27301 25.5641 8.53354 25.5641 8.79406C25.5668 13.2868 25.5063 17.7795 25.5957 22.267C25.6404 24.516 26.0875 26.7145 27.3605 28.6578C28.665 30.6463 30.4482 32.0128 32.7705 32.3663C34.5931 32.6428 36.4473 32.5604 38.2095 31.715C40.5897 30.5746 41.952 28.6313 42.7805 26.2174C43.2329 24.8962 43.4038 23.5324 43.3959 22.1261C43.3723 17.8168 43.3854 13.5075 43.4038 9.19814C43.4065 8.44581 43.4854 7.67486 44.2718 7.28407C45.6631 6.59288 47.3831 7.12723 47.4094 9.0732C47.4594 12.8668 47.4778 16.6657 47.3884 20.4592C47.3568 21.8124 47.3279 23.1762 47.22 24.5266C47.1227 25.7548 46.8124 26.9591 46.3758 28.1182C45.8261 29.5723 45.2028 31.0079 44.2323 32.2228C42.8305 33.972 41.1262 35.3571 38.988 36.1121C37.5283 36.6278 36.016 36.9229 34.4722 36.9123C31.2135 36.891 28.4546 35.6894 26.2401 33.241C25.3274 32.2308 24.591 31.1009 23.8546 29.9658C23.6258 29.6122 23.5416 29.668 23.3523 30.0083C22.3765 31.7496 21.1378 33.2941 19.6412 34.5941C18.5393 35.5511 17.2163 36.1546 15.8014 36.5241C14.3469 36.9016 12.8951 36.9654 11.3855 36.7793C9.85217 36.5879 8.38196 36.2503 7.03011 35.5272C5.63355 34.7775 4.46054 33.7381 3.41378 32.5152C2.14083 31.0265 1.3334 29.3145 0.76268 27.4775C0.520715 26.7012 0.32872 25.901 0.252449 25.069C-0.213072 19.9595 0.123576 14.8393 0.0288936 9.72451C0.0210034 9.29385 0.0578242 8.86318 0.0946451 8.43517C0.136726 7.96729 0.32346 7.58713 0.76531 7.35319C1.64901 6.88531 2.52219 6.87733 3.35855 7.43826C3.75306 7.70411 3.87667 8.13743 3.87404 8.61063C3.86878 11.0298 3.87404 13.449 3.87404 15.8708C3.87404 15.8708 3.8793 15.8708 3.88193 15.8708H3.8793Z" fill="white"/>
<path d="M241.942 12.0639C242.102 11.8513 242.044 11.6466 242.044 11.4552C242.05 8.1401 242.047 4.82504 242.047 1.51264C242.047 0.3004 242.136 0.186088 243.307 0.0372157C244.033 -0.0558292 244.748 0.0318989 245.445 0.247232C245.655 0.311034 245.813 0.454589 245.882 0.683214C245.968 0.972982 246 1.26541 246 1.56581C246 8.11086 246 14.6586 245.995 21.2036C245.995 23.1017 245.776 24.9786 245.195 26.7863C244.801 28.0145 244.206 29.1683 243.451 30.221C241.653 32.7306 239.367 34.6553 236.503 35.7904C235.235 36.2929 233.915 36.7023 232.521 36.7501C232.129 36.7634 231.763 36.9282 231.358 36.9309C228.389 36.9495 225.593 36.3248 222.963 34.8839C220.683 33.6344 218.937 31.8613 217.545 29.684C216.964 28.7775 216.454 27.8364 216.149 26.8023C215.902 25.9728 215.704 25.1301 215.578 24.2608C215.449 23.3702 215.418 22.4876 215.412 21.5971C215.402 19.7707 215.896 18.072 216.564 16.3812C217.619 13.7042 219.573 11.822 221.73 10.094C223.163 8.94561 224.849 8.26505 226.593 7.81312C228.258 7.37979 229.98 7.25485 231.706 7.3665C235.067 7.57918 238.089 8.67711 240.656 10.9315C241.084 11.3063 241.51 11.6811 241.947 12.0639H241.942ZM230.738 32.4461C232.069 32.5232 233.444 32.2334 234.772 31.731C236.758 30.9813 238.454 29.8329 239.775 28.1076C240.94 26.5816 241.568 24.8536 241.8 22.9927C241.984 21.5093 241.745 20.0206 241.192 18.6303C239.961 15.5359 237.728 13.4809 234.617 12.3803C232.371 11.5854 230.085 11.4897 227.789 12.0639C224.996 12.7605 222.703 14.2332 221.114 16.7056C220.312 17.955 219.87 19.3161 219.618 20.7995C219.373 22.2457 219.557 23.6201 219.944 24.9547C220.691 27.5466 222.337 29.5032 224.636 30.8431C226.477 31.9171 228.481 32.5099 230.738 32.4435V32.4461Z" fill="white"/>
<path d="M91.3499 29.2294C90.24 30.3805 89.2037 31.6087 87.9702 32.6295C86.0687 34.2033 84.012 35.5166 81.6607 36.3035C79.4725 37.0346 77.1975 37.1223 74.9514 36.8777C73.021 36.6677 71.172 36.0137 69.4362 35.062C66.6825 33.5547 64.6653 31.3721 63.3923 28.509C62.9215 27.4456 62.6428 26.3105 62.456 25.1408C62.2588 23.9126 62.2535 22.6923 62.3561 21.4828C62.5323 19.3799 63.1241 17.3835 64.1656 15.5226C64.8757 14.2572 65.7778 13.1699 66.7562 12.1171C68.4157 10.328 70.4251 9.09183 72.6712 8.23315C73.5207 7.90883 74.4307 7.75729 75.317 7.54728C76.5873 7.24422 77.8682 7.3479 79.1385 7.3798C80.7507 7.42233 82.2893 7.85566 83.7911 8.44317C85.7084 9.19285 87.2759 10.4556 88.7908 11.8061C89.209 12.1783 89.6167 12.5611 90.0217 12.9465C90.2742 13.1858 90.4925 13.4543 90.624 13.784C90.9291 14.5389 90.8396 14.7942 90.2321 15.3365C88.8697 16.554 87.531 17.7982 86.1818 19.0317C84.4354 20.6321 82.6891 22.2351 80.8007 23.66C79.341 24.7579 78.0759 23.8594 77.7393 22.4132C77.6341 21.9666 77.884 21.5226 78.2153 21.1637C79.2148 20.0871 80.372 19.1965 81.4898 18.2554C82.7969 17.1575 84.1303 16.0888 85.1482 14.6878C85.3796 14.3688 85.1955 14.2545 84.9404 14.1402C83.9094 13.6696 82.8653 13.2416 81.7949 12.8641C80.0906 12.2633 78.3547 11.8858 76.54 11.9682C74.5096 12.0613 72.729 12.7817 71.101 14.0179C69.7992 15.0095 68.7813 16.2244 67.9923 17.6254C67.5241 18.4601 67.1244 19.3401 66.9166 20.3184C66.6957 21.3605 66.5274 22.3893 66.5616 23.4527C66.6457 26.1563 67.7109 28.3867 69.6782 30.2184C70.7696 31.2339 71.9953 31.9995 73.376 32.5206C73.7048 32.6455 74.0414 32.7465 74.3833 32.8316C74.3833 32.8316 74.4096 32.8369 74.4596 32.8502C74.4728 32.8529 74.4859 32.8555 74.5017 32.8582C74.62 32.8874 74.7384 32.914 74.8594 32.9379C74.8725 32.9379 74.8857 32.9432 74.9015 32.9459C75.0277 32.9751 75.1566 32.9991 75.2855 33.0203C75.3118 33.0257 75.3381 33.031 75.3644 33.0363C75.3933 33.0416 75.4222 33.0443 75.4485 33.0496H75.459C75.7483 33.1001 76.0692 33.1506 76.3927 33.1878C76.4821 33.2144 76.6084 33.225 76.7741 33.233C76.8609 33.2357 76.945 33.2383 77.0292 33.2383C77.0607 33.241 77.0949 33.241 77.1265 33.241C77.3737 33.249 77.6078 33.2436 77.8077 33.2144C77.8182 33.2144 77.8261 33.2117 77.834 33.2117C77.8866 33.2091 77.9392 33.2038 77.9918 33.1958C79.5251 33.0469 80.9401 32.4886 82.2236 31.5529C84.3513 30.0004 86.3264 28.2511 88.3779 26.6029C89.5246 25.6804 90.4662 25.7389 91.4156 26.8448C91.9942 27.52 91.9679 28.5887 91.3499 29.2294Z" fill="white"/>
<path d="M74.3833 32.8316C74.3833 32.8316 74.4096 32.8369 74.4596 32.8502C74.4333 32.8422 74.4096 32.8369 74.3833 32.8316Z" fill="white"/>
<path d="M77.1265 33.241C77.3553 33.241 77.5815 33.233 77.8076 33.2144C77.6078 33.2436 77.3737 33.2489 77.1265 33.241Z" fill="white"/>
<path d="M195.905 27.8311C195.905 25.7097 195.937 23.5882 195.897 21.4668C195.853 19.1168 194.985 17.0379 193.522 15.2487C191.821 13.1698 189.606 11.8619 186.947 11.5163C184.612 11.2132 182.342 11.5083 180.227 12.7046C178.339 13.7707 176.89 15.2461 175.864 17.1495C175.38 18.0481 175.08 19.0104 174.886 20.0312C174.702 20.9909 174.736 21.94 174.731 22.8944C174.712 26.89 174.717 30.883 174.712 34.8786C174.712 35.8143 174.339 36.4869 173.705 36.7023C172.653 37.0585 171.693 36.8352 171.117 36.1068C170.935 35.8755 170.859 35.6176 170.859 35.3225C170.864 30.2848 170.791 25.2444 170.904 20.2067C170.946 18.2953 171.59 16.4583 172.532 14.7516C173.2 13.542 173.989 12.4255 174.938 11.4445C176.169 10.1738 177.563 9.10777 179.196 8.37936C180.609 7.74931 182.042 7.23624 183.604 7.14585C184.007 7.12192 184.393 6.96774 184.812 6.96774C185.977 6.96242 187.113 7.10332 188.265 7.31865C189.377 7.52601 190.408 7.91414 191.418 8.36607C193.591 9.33905 195.327 10.9208 196.823 12.7285C197.959 14.1003 198.651 15.7432 199.209 17.4632C199.724 19.045 199.785 20.6294 199.774 22.251C199.761 24.2395 199.908 26.2254 199.924 28.2086C199.942 30.657 199.824 33.1081 199.769 35.5591C199.764 35.8197 199.698 36.0456 199.522 36.2397C198.885 36.9415 197.428 37.101 196.66 36.5481C196.045 36.1041 195.932 35.4209 195.926 34.7403C195.903 32.4355 195.916 30.1333 195.916 27.8284C195.913 27.8284 195.908 27.8284 195.905 27.8284V27.8311Z" fill="white"/>
<path d="M151.042 21.9613C151.042 17.7211 151.042 13.4782 151.042 9.23803C151.042 7.84502 151.436 7.34257 152.778 7.01825C153.501 6.84279 154.579 7.44625 154.792 8.16403C154.921 8.60533 155.003 9.04929 155.003 9.52249C154.989 17.854 154.989 26.1882 155.003 34.5197C155.003 35.0142 154.876 35.4687 154.75 35.9233C154.54 36.681 153.264 37.0133 152.717 36.8724C152.42 36.798 152.109 36.7528 151.833 36.5879C151.131 36.1732 151.047 35.4927 151.047 34.7802C151.042 30.7713 151.047 26.7624 151.047 22.7535C151.047 22.4876 151.047 22.2245 151.047 21.9586L151.042 21.9613Z" fill="white"/>
<path d="M126.156 7.55523C129.175 7.55523 131.606 7.5765 134.036 7.5446C135.006 7.53131 135.298 7.91412 135.637 8.64785C135.914 9.25131 135.85 9.87604 135.608 10.4609C135.34 11.1122 134.822 11.4578 134.101 11.4551C133.231 11.4525 132.36 11.4551 131.49 11.4551C127.958 11.4551 124.425 11.4498 120.896 11.4551C118.337 11.4605 116.12 12.4122 114.202 14.0604C112.304 15.6953 111.094 17.8035 110.739 20.2811C110.46 22.2244 110.412 24.2023 110.484 26.1775C110.568 28.594 110.544 31.0132 110.491 33.4324C110.476 34.1103 110.462 34.7908 110.468 35.4687C110.473 36.0084 110.197 36.3327 109.731 36.5268C109.032 36.8192 108.345 36.9521 107.606 36.5959C106.972 36.2902 106.67 35.7718 106.686 35.1417C106.744 32.9379 106.389 30.7527 106.47 28.5515C106.549 26.4008 106.147 24.2608 106.289 22.1101C106.389 20.6134 106.67 19.1513 107.149 17.7264C107.577 16.453 108.132 15.2354 108.877 14.1375C109.915 12.6009 111.059 11.1441 112.659 10.1073C113.584 9.50652 114.523 8.94825 115.525 8.49897C116.33 8.13743 117.182 7.90615 118.053 7.76259C120.941 7.28142 123.849 7.7174 126.159 7.54992L126.156 7.55523Z" fill="white"/>
<path d="M122.561 22.8332C119.655 22.8332 116.746 22.8332 113.839 22.8332C112.093 22.8332 111.236 21.4323 112.017 19.8319C112.304 19.247 112.777 18.8961 113.453 18.8961C119.547 18.8961 125.641 18.8935 131.734 18.8988C132.655 18.8988 133.31 19.5687 133.326 20.4912C133.331 20.9032 133.404 21.3286 133.262 21.7247C133.005 22.4398 132.452 22.8226 131.677 22.8226C128.639 22.8279 125.598 22.8226 122.561 22.8226V22.8306V22.8332Z" fill="white"/>
<path d="M74.5017 32.8582C74.6201 32.8874 74.7384 32.914 74.8594 32.9379C74.7069 32.906 74.5832 32.8768 74.5017 32.8582Z" fill="white"/>
<path d="M74.9015 32.9459C75.0146 32.9672 75.1461 32.9937 75.2855 33.0203C75.1566 32.9991 75.0277 32.9751 74.9015 32.9459Z" fill="white"/>
<path d="M75.2855 33.0203C75.3383 33.0283 75.3937 33.0389 75.4492 33.0496C75.4228 33.0443 75.3937 33.0416 75.3647 33.0363C75.3383 33.031 75.3119 33.0256 75.2855 33.0203Z" fill="white"/>
<path d="M76.3927 33.1878C76.6057 33.2117 76.8214 33.2303 77.0292 33.2383C76.945 33.2383 76.8609 33.2357 76.7741 33.233C76.6084 33.225 76.4821 33.2144 76.3927 33.1878Z" fill="white"/>
</g>
<defs>
<clipPath id="clip0_49_3">
<rect width="246" height="37" fill="white"/>
</clipPath>
</defs>
</svg>

