<svg width="1440" height="114" viewBox="0 0 1440 114" fill="none" xmlns="http://www.w3.org/2000/svg">
<rect width="1440" height="114" fill="#01A1FD"/>
<g clip-path="url(#clip0_13_1181)">
<path d="M130.879 53.8708C130.879 56.0906 130.85 58.313 130.89 60.5328C130.921 62.2767 131.279 63.9675 132.05 65.536C132.762 66.9875 133.643 68.3326 135.064 69.178C136.258 69.8878 137.541 70.3956 138.954 70.4408C140.25 70.4833 141.544 70.5019 142.791 70.042C144.206 69.5183 145.413 68.7288 146.339 67.4899C147.191 66.3468 147.804 65.1 148.185 63.7336C148.474 62.6968 148.693 61.6414 148.695 60.5594C148.703 56.0188 148.701 51.4756 148.701 46.935C148.701 45.4595 149.774 44.6806 151.173 45.098C151.723 45.2601 152.241 45.3984 152.475 46.0125C152.575 46.273 152.564 46.5335 152.564 46.7941C152.567 51.2868 152.506 55.7795 152.596 60.267C152.64 62.516 153.088 64.7145 154.36 66.6578C155.665 68.6463 157.448 70.0128 159.771 70.3663C161.593 70.6428 163.447 70.5604 165.209 69.715C167.59 68.5746 168.952 66.6313 169.781 64.2174C170.233 62.8962 170.404 61.5324 170.396 60.1261C170.372 55.8168 170.385 51.5075 170.404 47.1981C170.406 46.4458 170.485 45.6749 171.272 45.2841C172.663 44.5929 174.383 45.1272 174.409 47.0732C174.459 50.8668 174.478 54.6657 174.388 58.4592C174.357 59.8124 174.328 61.1762 174.22 62.5266C174.123 63.7548 173.812 64.9591 173.376 66.1182C172.826 67.5723 172.203 69.0079 171.232 70.2228C169.83 71.972 168.126 73.3571 165.988 74.1121C164.528 74.6278 163.016 74.9229 161.472 74.9123C158.214 74.891 155.455 73.6894 153.24 71.241C152.327 70.2308 151.591 69.1009 150.855 67.9658C150.626 67.6122 150.542 67.668 150.352 68.0083C149.377 69.7496 148.138 71.2941 146.641 72.5941C145.539 73.5511 144.216 74.1546 142.801 74.5241C141.347 74.9016 139.895 74.9654 138.385 74.7793C136.852 74.5879 135.382 74.2503 134.03 73.5272C132.634 72.7775 131.461 71.7381 130.414 70.5152C129.141 69.0265 128.333 67.3145 127.763 65.4775C127.521 64.7012 127.329 63.901 127.252 63.069C126.787 57.9595 127.124 52.8393 127.029 47.7245C127.021 47.2938 127.058 46.8632 127.095 46.4352C127.137 45.9673 127.323 45.5871 127.765 45.3532C128.649 44.8853 129.522 44.8773 130.359 45.4383C130.753 45.7041 130.877 46.1374 130.874 46.6106C130.869 49.0298 130.874 51.449 130.874 53.8708C130.874 53.8708 130.879 53.8708 130.882 53.8708H130.879Z" fill="white"/>
<path d="M368.942 50.0639C369.102 49.8513 369.044 49.6466 369.044 49.4552C369.05 46.1401 369.047 42.825 369.047 39.5126C369.047 38.3004 369.136 38.1861 370.307 38.0372C371.033 37.9442 371.748 38.0319 372.445 38.2472C372.655 38.311 372.813 38.4546 372.882 38.6832C372.968 38.973 373 39.2654 373 39.5658C373 46.1109 373 52.6586 372.995 59.2036C372.995 61.1017 372.776 62.9786 372.195 64.7863C371.801 66.0145 371.206 67.1683 370.451 68.221C368.653 70.7306 366.367 72.6553 363.503 73.7904C362.235 74.2929 360.915 74.7023 359.521 74.7501C359.129 74.7634 358.763 74.9282 358.358 74.9309C355.389 74.9495 352.593 74.3248 349.963 72.8839C347.683 71.6344 345.937 69.8613 344.545 67.684C343.964 66.7775 343.454 65.8364 343.149 64.8023C342.902 63.9728 342.704 63.1301 342.578 62.2608C342.449 61.3702 342.418 60.4876 342.412 59.5971C342.402 57.7707 342.896 56.072 343.564 54.3812C344.619 51.7042 346.573 49.822 348.73 48.094C350.163 46.9456 351.849 46.265 353.593 45.8131C355.258 45.3798 356.98 45.2548 358.706 45.3665C362.067 45.5792 365.089 46.6771 367.656 48.9315C368.084 49.3063 368.51 49.6811 368.947 50.0639H368.942ZM357.738 70.4461C359.069 70.5232 360.444 70.2334 361.772 69.731C363.758 68.9813 365.454 67.8329 366.775 66.1076C367.94 64.5816 368.568 62.8536 368.8 60.9927C368.984 59.5093 368.745 58.0206 368.192 56.6303C366.961 53.5359 364.728 51.4809 361.617 50.3803C359.371 49.5854 357.085 49.4897 354.789 50.0639C351.996 50.7605 349.703 52.2332 348.114 54.7056C347.312 55.955 346.87 57.3161 346.618 58.7995C346.373 60.2457 346.557 61.6201 346.944 62.9547C347.691 65.5466 349.337 67.5032 351.636 68.8431C353.477 69.9171 355.481 70.5099 357.738 70.4435V70.4461Z" fill="white"/>
<path d="M218.35 67.2294C217.24 68.3805 216.204 69.6087 214.97 70.6295C213.069 72.2033 211.012 73.5166 208.661 74.3035C206.473 75.0346 204.198 75.1223 201.951 74.8777C200.021 74.6677 198.172 74.0137 196.436 73.062C193.683 71.5547 191.665 69.3721 190.392 66.509C189.922 65.4456 189.643 64.3105 189.456 63.1408C189.259 61.9126 189.254 60.6923 189.356 59.4828C189.532 57.3799 190.124 55.3835 191.166 53.5226C191.876 52.2572 192.778 51.1699 193.756 50.1171C195.416 48.328 197.425 47.0918 199.671 46.2332C200.521 45.9088 201.431 45.7573 202.317 45.5473C203.587 45.2442 204.868 45.3479 206.138 45.3798C207.751 45.4223 209.289 45.8557 210.791 46.4432C212.708 47.1928 214.276 48.4556 215.791 49.8061C216.209 50.1783 216.617 50.5611 217.022 50.9465C217.274 51.1858 217.492 51.4543 217.624 51.784C217.929 52.5389 217.84 52.7942 217.232 53.3365C215.87 54.554 214.531 55.7982 213.182 57.0317C211.435 58.6321 209.689 60.2351 207.801 61.66C206.341 62.7579 205.076 61.8594 204.739 60.4132C204.634 59.9666 204.884 59.5226 205.215 59.1637C206.215 58.0871 207.372 57.1965 208.49 56.2554C209.797 55.1575 211.13 54.0888 212.148 52.6878C212.38 52.3688 212.196 52.2545 211.94 52.1402C210.909 51.6696 209.865 51.2416 208.795 50.8641C207.091 50.2633 205.355 49.8858 203.54 49.9682C201.51 50.0613 199.729 50.7817 198.101 52.0179C196.799 53.0095 195.781 54.2244 194.992 55.6254C194.524 56.4601 194.124 57.3401 193.917 58.3184C193.696 59.3605 193.527 60.3893 193.562 61.4527C193.646 64.1563 194.711 66.3867 196.678 68.2184C197.77 69.2339 198.995 69.9995 200.376 70.5206C200.705 70.6455 201.041 70.7465 201.383 70.8316C201.383 70.8316 201.41 70.8369 201.46 70.8502C201.473 70.8529 201.486 70.8555 201.502 70.8582C201.62 70.8874 201.738 70.914 201.859 70.9379C201.873 70.9379 201.886 70.9432 201.901 70.9459C202.028 70.9751 202.157 70.9991 202.285 71.0203C202.312 71.0257 202.338 71.031 202.364 71.0363C202.393 71.0416 202.422 71.0443 202.449 71.0496H202.459C202.748 71.1001 203.069 71.1506 203.393 71.1878C203.482 71.2144 203.608 71.225 203.774 71.233C203.861 71.2357 203.945 71.2383 204.029 71.2383C204.061 71.241 204.095 71.241 204.127 71.241C204.374 71.249 204.608 71.2436 204.808 71.2144C204.818 71.2144 204.826 71.2117 204.834 71.2117C204.887 71.2091 204.939 71.2038 204.992 71.1958C206.525 71.0469 207.94 70.4886 209.224 69.5529C211.351 68.0004 213.326 66.2511 215.378 64.6029C216.525 63.6804 217.466 63.7389 218.416 64.8448C218.994 65.52 218.968 66.5887 218.35 67.2294Z" fill="white"/>
<path d="M201.383 70.8316C201.383 70.8316 201.41 70.8369 201.46 70.8502C201.433 70.8422 201.41 70.8369 201.383 70.8316Z" fill="white"/>
<path d="M204.126 71.241C204.355 71.241 204.581 71.233 204.808 71.2144C204.608 71.2436 204.374 71.2489 204.126 71.241Z" fill="white"/>
<path d="M322.905 65.8311C322.905 63.7097 322.937 61.5882 322.897 59.4668C322.853 57.1168 321.985 55.0379 320.522 53.2487C318.821 51.1698 316.606 49.8619 313.947 49.5163C311.612 49.2132 309.342 49.5083 307.227 50.7046C305.339 51.7707 303.89 53.2461 302.864 55.1495C302.38 56.0481 302.08 57.0104 301.886 58.0312C301.702 58.9909 301.736 59.94 301.731 60.8944C301.712 64.89 301.717 68.883 301.712 72.8786C301.712 73.8143 301.339 74.4869 300.705 74.7023C299.653 75.0585 298.693 74.8352 298.117 74.1068C297.935 73.8755 297.859 73.6176 297.859 73.3225C297.864 68.2848 297.791 63.2444 297.904 58.2067C297.946 56.2953 298.59 54.4583 299.532 52.7516C300.2 51.542 300.989 50.4255 301.938 49.4445C303.169 48.1738 304.563 47.1078 306.196 46.3794C307.609 45.7493 309.042 45.2362 310.604 45.1459C311.007 45.1219 311.393 44.9677 311.812 44.9677C312.977 44.9624 314.113 45.1033 315.265 45.3186C316.377 45.526 317.408 45.9141 318.418 46.3661C320.591 47.3391 322.327 48.9208 323.823 50.7285C324.959 52.1003 325.651 53.7432 326.209 55.4632C326.724 57.045 326.785 58.6294 326.774 60.251C326.761 62.2395 326.908 64.2254 326.924 66.2086C326.942 68.657 326.824 71.1081 326.769 73.5591C326.764 73.8197 326.698 74.0456 326.522 74.2397C325.885 74.9415 324.428 75.101 323.66 74.5481C323.045 74.1041 322.932 73.4209 322.926 72.7403C322.903 70.4355 322.916 68.1333 322.916 65.8284C322.913 65.8284 322.908 65.8284 322.905 65.8284V65.8311Z" fill="white"/>
<path d="M278.042 59.9613C278.042 55.7211 278.042 51.4782 278.042 47.238C278.042 45.845 278.436 45.3426 279.777 45.0182C280.501 44.8428 281.579 45.4463 281.792 46.164C281.921 46.6053 282.002 47.0493 282.002 47.5225C281.989 55.854 281.989 64.1882 282.002 72.5197C282.002 73.0142 281.876 73.4687 281.75 73.9233C281.54 74.681 280.264 75.0133 279.717 74.8724C279.42 74.798 279.109 74.7528 278.833 74.5879C278.131 74.1732 278.047 73.4927 278.047 72.7802C278.042 68.7713 278.047 64.7624 278.047 60.7535C278.047 60.4876 278.047 60.2245 278.047 59.9586L278.042 59.9613Z" fill="white"/>
<path d="M253.156 45.5552C256.175 45.5552 258.606 45.5765 261.036 45.5446C262.006 45.5313 262.298 45.9141 262.637 46.6478C262.914 47.2513 262.85 47.876 262.608 48.4609C262.34 49.1122 261.822 49.4578 261.101 49.4551C260.231 49.4525 259.36 49.4551 258.49 49.4551C254.958 49.4551 251.425 49.4498 247.896 49.4551C245.337 49.4605 243.12 50.4122 241.202 52.0604C239.304 53.6953 238.094 55.8035 237.739 58.2811C237.46 60.2244 237.412 62.2023 237.484 64.1775C237.568 66.594 237.544 69.0132 237.491 71.4324C237.476 72.1103 237.462 72.7908 237.468 73.4687C237.473 74.0084 237.197 74.3327 236.731 74.5268C236.032 74.8192 235.345 74.9521 234.606 74.5959C233.972 74.2902 233.67 73.7718 233.686 73.1417C233.744 70.9379 233.389 68.7527 233.47 66.5515C233.549 64.4008 233.147 62.2608 233.289 60.1101C233.389 58.6134 233.67 57.1513 234.149 55.7264C234.577 54.453 235.132 53.2354 235.877 52.1375C236.915 50.6009 238.059 49.1441 239.659 48.1073C240.584 47.5065 241.523 46.9482 242.525 46.499C243.33 46.1374 244.182 45.9061 245.053 45.7626C247.941 45.2814 250.849 45.7174 253.159 45.5499L253.156 45.5552Z" fill="white"/>
<path d="M249.561 60.8332C246.655 60.8332 243.746 60.8332 240.839 60.8332C239.093 60.8332 238.236 59.4323 239.017 57.8319C239.303 57.247 239.777 56.8961 240.453 56.8961C246.547 56.8961 252.641 56.8935 258.734 56.8988C259.655 56.8988 260.31 57.5687 260.326 58.4912C260.331 58.9032 260.404 59.3286 260.262 59.7247C260.005 60.4398 259.452 60.8226 258.677 60.8226C255.639 60.8279 252.598 60.8226 249.561 60.8226V60.8306V60.8332Z" fill="white"/>
<path d="M201.502 70.8582C201.62 70.8874 201.738 70.914 201.859 70.9379C201.707 70.906 201.583 70.8768 201.502 70.8582Z" fill="white"/>
<path d="M201.901 70.9459C202.015 70.9672 202.146 70.9937 202.285 71.0203C202.157 70.9991 202.028 70.9751 201.901 70.9459Z" fill="white"/>
<path d="M202.285 71.0203C202.338 71.0283 202.394 71.0389 202.449 71.0496C202.423 71.0443 202.394 71.0416 202.365 71.0363C202.338 71.031 202.312 71.0256 202.285 71.0203Z" fill="white"/>
<path d="M203.393 71.1878C203.606 71.2117 203.821 71.2303 204.029 71.2383C203.945 71.2383 203.861 71.2357 203.774 71.233C203.608 71.225 203.482 71.2144 203.393 71.1878Z" fill="white"/>
</g>
<g clip-path="url(#clip1_13_1181)">
<path d="M1205.01 53.6719C1204.9 45.2008 1211.09 37.5308 1220.01 36.1879C1227.13 35.1159 1234.48 38.7135 1237.84 45.1047C1241.26 51.627 1240.75 57.9701 1236.51 63.9928C1236.18 64.469 1236.25 64.7006 1236.62 65.0691C1239.85 68.2676 1243.06 71.4851 1246.28 74.6938C1246.67 75.0899 1246.99 75.5152 1247 76.108C1247.02 76.8713 1246.72 77.4611 1246.03 77.7961C1245.35 78.1268 1244.68 78.0539 1244.08 77.5937C1243.91 77.4626 1243.76 77.3024 1243.6 77.148C1240.41 73.9641 1237.21 70.783 1234.04 67.5845C1233.67 67.2102 1233.43 67.184 1233 67.5088C1229.47 70.1655 1225.46 71.2957 1221.07 70.9738C1213.2 70.3985 1206.56 64.2914 1205.23 56.4641C1205.07 55.4955 1204.97 54.5211 1205.01 53.6719ZM1222.49 67.4374C1230.26 67.334 1236.42 61.2851 1236.41 53.5175C1236.41 45.7266 1230.24 39.6472 1222.53 39.6326C1214.87 39.618 1208.64 45.632 1208.6 53.4709C1208.56 61.1234 1214.61 67.2947 1222.49 67.436V67.4374Z" fill="white"/>
</g>
<path d="M1274 58.8047C1274 57.6016 1274 56.3984 1274 55.1953C1274.1 54.5205 1274.19 53.8434 1274.3 53.1719C1275.64 45.3975 1281.74 38.7497 1289.38 36.7066C1290.63 36.3708 1291.91 36.1652 1293.2 36C1294.4 36 1295.6 36 1296.81 36C1297.47 36.0984 1298.13 36.1608 1298.79 36.2986C1307.01 38.0409 1312.44 42.9191 1315.14 50.8652C1315.62 52.2936 1315.83 53.7833 1316 55.2773V58.7227C1315.9 59.4106 1315.84 60.1084 1315.7 60.7866C1313.93 69.087 1308.99 74.547 1300.94 77.1972C1299.57 77.6467 1298.15 77.8392 1296.72 78H1293.28C1292.59 77.9016 1291.89 77.8436 1291.21 77.6992C1283.01 75.958 1277.58 71.0973 1274.87 63.1731C1274.39 61.7589 1274.18 60.2812 1274 58.8036L1274 58.8047ZM1276.5 57.0339C1276.57 57.9505 1276.58 58.9064 1276.73 59.8536C1277.33 63.5155 1278.87 66.718 1281.37 69.4622C1281.67 69.7969 1281.68 69.7892 1281.88 69.3736C1284.67 63.5111 1290.65 60.2211 1297.07 61.1672C1302.13 61.912 1305.77 64.7 1308.07 69.2555C1308.34 69.7969 1308.33 69.8045 1308.74 69.3539C1308.78 69.3134 1308.82 69.2741 1308.85 69.2325C1312.75 64.6661 1314.24 59.4052 1313.14 53.5109C1311.27 43.4834 1301.47 36.8958 1291.49 38.8459C1283.17 40.4691 1276.59 47.7053 1276.5 57.0339ZM1295.01 63.5997C1294.63 63.5997 1294.24 63.557 1293.87 63.6062C1289.13 64.2198 1285.8 66.7103 1283.91 71.1116C1283.73 71.5228 1283.82 71.7383 1284.17 71.9855C1288.04 74.7111 1292.32 75.8584 1297.03 75.3663C1300.28 75.0272 1303.2 73.8558 1305.85 71.9756C1306.18 71.7372 1306.26 71.5283 1306.1 71.1323C1304.28 66.5364 1299.95 63.5756 1295.01 63.5997H1295.01Z" fill="white"/>
<path d="M1294.99 58.2622C1290.66 58.2622 1287.13 54.7458 1287.12 50.4211C1287.1 46.1085 1290.68 42.5363 1295.01 42.5385C1299.32 42.5406 1302.88 46.0888 1302.88 50.3981C1302.89 54.725 1299.34 58.2644 1294.99 58.2633L1294.99 58.2622ZM1295 45.1197C1292.06 45.1197 1289.7 47.4658 1289.7 50.3905C1289.69 53.325 1292.08 55.7345 1295 55.7356C1297.9 55.7356 1300.3 53.336 1300.31 50.432C1300.31 47.4745 1297.96 45.1208 1295 45.1197Z" fill="white"/>
<path d="M563.603 49.4545V64H561.841V49.4545H563.603ZM568.583 57.4375V64H566.907V53.0909H568.526V54.7955H568.669C568.924 54.2415 569.312 53.7964 569.833 53.4602C570.354 53.1193 571.026 52.9489 571.85 52.9489C572.589 52.9489 573.235 53.1004 573.789 53.4034C574.343 53.7017 574.774 54.1562 575.082 54.767C575.39 55.3731 575.544 56.1402 575.544 57.0682V64H573.867V57.1818C573.867 56.3248 573.645 55.6572 573.2 55.179C572.755 54.696 572.144 54.4545 571.367 54.4545C570.832 54.4545 570.354 54.5705 569.933 54.8026C569.516 55.0346 569.187 55.3731 568.945 55.8182C568.704 56.2633 568.583 56.803 568.583 57.4375ZM578.606 64V53.0909H580.282V64H578.606ZM579.459 51.2727C579.132 51.2727 578.85 51.1615 578.613 50.9389C578.381 50.7164 578.265 50.4489 578.265 50.1364C578.265 49.8239 578.381 49.5563 578.613 49.3338C578.85 49.1113 579.132 49 579.459 49C579.785 49 580.065 49.1113 580.297 49.3338C580.533 49.5563 580.652 49.8239 580.652 50.1364C580.652 50.4489 580.533 50.7164 580.297 50.9389C580.065 51.1615 579.785 51.2727 579.459 51.2727ZM587.784 64.2273C586.762 64.2273 585.881 63.9858 585.142 63.5028C584.404 63.0199 583.835 62.3546 583.438 61.5071C583.04 60.6596 582.841 59.6913 582.841 58.6023C582.841 57.4943 583.045 56.5166 583.452 55.669C583.864 54.8168 584.437 54.1515 585.171 53.6733C585.909 53.1903 586.771 52.9489 587.756 52.9489C588.523 52.9489 589.214 53.0909 589.83 53.375C590.445 53.6591 590.95 54.0568 591.343 54.5682C591.735 55.0795 591.979 55.6761 592.074 56.358H590.398C590.27 55.8608 589.986 55.4205 589.546 55.0369C589.11 54.6487 588.523 54.4545 587.784 54.4545C587.131 54.4545 586.558 54.625 586.066 54.9659C585.578 55.3021 585.197 55.7779 584.922 56.3935C584.652 57.0043 584.517 57.7216 584.517 58.5455C584.517 59.3883 584.65 60.1222 584.915 60.7472C585.185 61.3722 585.564 61.8575 586.051 62.2031C586.544 62.5488 587.121 62.7216 587.784 62.7216C588.22 62.7216 588.615 62.6458 588.97 62.4943C589.325 62.3428 589.626 62.125 589.872 61.8409C590.119 61.5568 590.294 61.2159 590.398 60.8182H592.074C591.979 61.4621 591.745 62.0421 591.371 62.5582C591.002 63.0696 590.512 63.4768 589.901 63.7798C589.295 64.0781 588.589 64.2273 587.784 64.2273ZM594.524 64V53.0909H596.2V64H594.524ZM595.377 51.2727C595.05 51.2727 594.768 51.1615 594.531 50.9389C594.299 50.7164 594.183 50.4489 594.183 50.1364C594.183 49.8239 594.299 49.5563 594.531 49.3338C594.768 49.1113 595.05 49 595.377 49C595.703 49 595.983 49.1113 596.215 49.3338C596.451 49.5563 596.57 49.8239 596.57 50.1364C596.57 50.4489 596.451 50.7164 596.215 50.9389C595.983 51.1615 595.703 51.2727 595.377 51.2727ZM603.702 64.2273C602.717 64.2273 601.853 63.9929 601.11 63.5241C600.371 63.0554 599.794 62.3996 599.377 61.5568C598.965 60.714 598.759 59.7292 598.759 58.6023C598.759 57.4659 598.965 56.474 599.377 55.6264C599.794 54.7789 600.371 54.1207 601.11 53.652C601.853 53.1832 602.717 52.9489 603.702 52.9489C604.687 52.9489 605.549 53.1832 606.287 53.652C607.031 54.1207 607.608 54.7789 608.02 55.6264C608.437 56.474 608.645 57.4659 608.645 58.6023C608.645 59.7292 608.437 60.714 608.02 61.5568C607.608 62.3996 607.031 63.0554 606.287 63.5241C605.549 63.9929 604.687 64.2273 603.702 64.2273ZM603.702 62.7216C604.45 62.7216 605.066 62.5298 605.549 62.1463C606.032 61.7628 606.389 61.2585 606.621 60.6335C606.853 60.0085 606.969 59.3314 606.969 58.6023C606.969 57.8731 606.853 57.1937 606.621 56.5639C606.389 55.9342 606.032 55.4252 605.549 55.0369C605.066 54.6487 604.45 54.4545 603.702 54.4545C602.954 54.4545 602.339 54.6487 601.856 55.0369C601.373 55.4252 601.015 55.9342 600.783 56.5639C600.551 57.1937 600.435 57.8731 600.435 58.6023C600.435 59.3314 600.551 60.0085 600.783 60.6335C601.015 61.2585 601.373 61.7628 601.856 62.1463C602.339 62.5298 602.954 62.7216 603.702 62.7216Z" fill="white"/>
<path d="M639.896 54.1847H637.68C637.595 53.7112 637.436 53.2945 637.204 52.9347C636.972 52.5748 636.688 52.2694 636.352 52.0185C636.016 51.7675 635.639 51.5781 635.222 51.4503C634.811 51.3224 634.373 51.2585 633.909 51.2585C633.07 51.2585 632.32 51.4692 631.657 51.8906C630.999 52.312 630.478 52.9299 630.095 53.7443C629.716 54.5587 629.526 55.553 629.526 56.7273C629.526 57.911 629.716 58.91 630.095 59.7244C630.478 60.5388 631.001 61.1544 631.664 61.571C632.327 61.9877 633.073 62.196 633.901 62.196C634.361 62.196 634.796 62.1345 635.208 62.0114C635.625 61.8835 636.001 61.6965 636.338 61.4503C636.674 61.2041 636.958 60.9034 637.19 60.5483C637.427 60.1884 637.59 59.7765 637.68 59.3125L639.896 59.3196C639.777 60.0346 639.548 60.6927 639.207 61.294C638.871 61.8906 638.437 62.4067 637.907 62.8423C637.382 63.2732 636.78 63.607 636.103 63.8438C635.426 64.0805 634.687 64.1989 633.887 64.1989C632.628 64.1989 631.506 63.9006 630.521 63.304C629.536 62.7027 628.759 61.8433 628.191 60.7259C627.628 59.6084 627.346 58.2756 627.346 56.7273C627.346 55.1742 627.63 53.8414 628.198 52.7287C628.767 51.6113 629.543 50.7543 630.528 50.1577C631.513 49.5563 632.633 49.2557 633.887 49.2557C634.659 49.2557 635.379 49.367 636.046 49.5895C636.719 49.8073 637.322 50.1293 637.857 50.5554C638.392 50.9768 638.835 51.4929 639.186 52.1037C639.536 52.7098 639.773 53.4034 639.896 54.1847ZM645.526 64.2415C644.835 64.2415 644.21 64.1136 643.651 63.858C643.092 63.5975 642.65 63.2211 642.323 62.7287C642.001 62.2363 641.84 61.6326 641.84 60.9176C641.84 60.3021 641.958 59.7955 642.195 59.3977C642.432 59 642.751 58.6851 643.154 58.4531C643.556 58.2211 644.006 58.0459 644.503 57.9276C645.001 57.8092 645.507 57.7192 646.023 57.6577C646.677 57.5819 647.207 57.5204 647.614 57.473C648.021 57.4209 648.317 57.3381 648.502 57.2244C648.687 57.1108 648.779 56.9261 648.779 56.6705V56.6207C648.779 56.0005 648.604 55.5199 648.253 55.179C647.908 54.8381 647.392 54.6676 646.705 54.6676C645.99 54.6676 645.427 54.8262 645.015 55.1435C644.608 55.456 644.326 55.804 644.17 56.1875L642.174 55.733C642.411 55.0701 642.756 54.535 643.211 54.1278C643.67 53.7159 644.198 53.4176 644.795 53.233C645.391 53.0436 646.019 52.9489 646.677 52.9489C647.112 52.9489 647.574 53.0009 648.062 53.1051C648.554 53.2045 649.013 53.3892 649.439 53.6591C649.87 53.929 650.223 54.3149 650.498 54.8168C650.772 55.3139 650.91 55.9602 650.91 56.7557V64H648.836V62.5085H648.751C648.613 62.7831 648.407 63.053 648.133 63.3182C647.858 63.5833 647.505 63.8035 647.074 63.9787C646.644 64.1539 646.127 64.2415 645.526 64.2415ZM645.988 62.5369C646.575 62.5369 647.077 62.4209 647.493 62.1889C647.915 61.9569 648.234 61.6539 648.452 61.2798C648.675 60.901 648.786 60.4962 648.786 60.0653V58.6591C648.71 58.7348 648.564 58.8059 648.346 58.8722C648.133 58.9337 647.889 58.9882 647.614 59.0355C647.34 59.0781 647.072 59.1184 646.812 59.1562C646.551 59.1894 646.333 59.2178 646.158 59.2415C645.746 59.2936 645.37 59.3812 645.029 59.5043C644.693 59.6274 644.423 59.8049 644.219 60.0369C644.02 60.2642 643.921 60.5672 643.921 60.946C643.921 61.4716 644.115 61.8693 644.503 62.1392C644.892 62.4044 645.386 62.5369 645.988 62.5369ZM658.83 53.0909V54.7955H652.872V53.0909H658.83ZM654.47 50.4773H656.593V60.7969C656.593 61.2088 656.655 61.5189 656.778 61.7273C656.901 61.9309 657.06 62.0705 657.254 62.1463C657.453 62.2173 657.668 62.2528 657.9 62.2528C658.07 62.2528 658.22 62.241 658.347 62.2173C658.475 62.1937 658.575 62.1747 658.646 62.1605L659.029 63.9148C658.906 63.9621 658.731 64.0095 658.504 64.0568C658.276 64.1089 657.992 64.1373 657.651 64.142C657.093 64.1515 656.572 64.0521 656.089 63.8438C655.606 63.6354 655.215 63.3134 654.917 62.8778C654.619 62.4422 654.47 61.8954 654.47 61.2372V50.4773ZM665.764 64.2202C664.689 64.2202 663.764 63.9905 662.987 63.5312C662.215 63.0672 661.619 62.4162 661.197 61.5781C660.781 60.7353 660.572 59.7481 660.572 58.6165C660.572 57.4991 660.781 56.5142 661.197 55.6619C661.619 54.8097 662.206 54.1444 662.959 53.6662C663.716 53.188 664.602 52.9489 665.615 52.9489C666.23 52.9489 666.827 53.0507 667.405 53.2543C667.982 53.4579 668.501 53.7775 668.96 54.2131C669.419 54.6487 669.782 55.2145 670.047 55.9105C670.312 56.6018 670.444 57.4422 670.444 58.4318V59.1847H661.773V57.5938H668.363C668.363 57.035 668.25 56.5402 668.023 56.1094C667.795 55.6738 667.476 55.3305 667.064 55.0795C666.657 54.8286 666.178 54.7031 665.629 54.7031C665.032 54.7031 664.512 54.8499 664.067 55.1435C663.626 55.4323 663.285 55.8111 663.044 56.2798C662.807 56.7438 662.689 57.2481 662.689 57.7926V59.0355C662.689 59.7647 662.817 60.3849 663.072 60.8963C663.333 61.4077 663.695 61.7983 664.159 62.0682C664.623 62.3333 665.165 62.4659 665.785 62.4659C666.188 62.4659 666.555 62.4091 666.886 62.2955C667.218 62.1771 667.504 62.0019 667.746 61.7699C667.987 61.5379 668.172 61.2514 668.3 60.9105L670.309 61.2727C670.148 61.8646 669.86 62.383 669.443 62.8281C669.031 63.2685 668.513 63.6117 667.888 63.858C667.267 64.0994 666.559 64.2202 665.764 64.2202ZM677.374 68.3182C676.508 68.3182 675.762 68.2045 675.137 67.9773C674.517 67.75 674.01 67.4493 673.617 67.0753C673.224 66.7012 672.931 66.2917 672.737 65.8466L674.562 65.0938C674.69 65.3021 674.86 65.5223 675.073 65.7543C675.291 65.991 675.585 66.1922 675.954 66.358C676.328 66.5237 676.809 66.6065 677.396 66.6065C678.201 66.6065 678.866 66.41 679.392 66.017C679.917 65.6288 680.18 65.0085 680.18 64.1562V62.0114H680.045C679.917 62.2434 679.732 62.5014 679.491 62.7855C679.254 63.0696 678.927 63.3158 678.511 63.5241C678.094 63.7325 677.552 63.8366 676.884 63.8366C676.023 63.8366 675.246 63.6354 674.555 63.233C673.868 62.8258 673.324 62.2268 672.921 61.4361C672.524 60.6406 672.325 59.6629 672.325 58.5028C672.325 57.3428 672.521 56.3485 672.914 55.5199C673.312 54.6913 673.856 54.0568 674.548 53.6165C675.239 53.1714 676.023 52.9489 676.899 52.9489C677.576 52.9489 678.123 53.0625 678.539 53.2898C678.956 53.5123 679.28 53.7727 679.512 54.071C679.749 54.3693 679.931 54.6321 680.059 54.8594H680.215V53.0909H682.296V64.2415C682.296 65.179 682.079 65.9484 681.643 66.5497C681.207 67.151 680.618 67.5961 679.874 67.8849C679.136 68.1738 678.302 68.3182 677.374 68.3182ZM677.353 62.0753C677.964 62.0753 678.48 61.9332 678.901 61.6491C679.328 61.3603 679.65 60.9484 679.867 60.4134C680.09 59.8736 680.201 59.2273 680.201 58.4744C680.201 57.7405 680.092 57.0942 679.874 56.5355C679.657 55.9768 679.337 55.5412 678.916 55.2287C678.494 54.9115 677.973 54.7528 677.353 54.7528C676.714 54.7528 676.181 54.9186 675.755 55.25C675.329 55.5767 675.007 56.0218 674.789 56.5852C674.576 57.1487 674.47 57.7784 674.47 58.4744C674.47 59.1894 674.579 59.8168 674.796 60.3565C675.014 60.8963 675.336 61.3177 675.762 61.6207C676.193 61.9238 676.723 62.0753 677.353 62.0753ZM689.74 64.2202C688.717 64.2202 687.824 63.9858 687.062 63.517C686.3 63.0483 685.708 62.3925 685.286 61.5497C684.865 60.7069 684.654 59.7221 684.654 58.5952C684.654 57.4635 684.865 56.474 685.286 55.6264C685.708 54.7789 686.3 54.1207 687.062 53.652C687.824 53.1832 688.717 52.9489 689.74 52.9489C690.762 52.9489 691.655 53.1832 692.417 53.652C693.179 54.1207 693.771 54.7789 694.193 55.6264C694.614 56.474 694.825 57.4635 694.825 58.5952C694.825 59.7221 694.614 60.7069 694.193 61.5497C693.771 62.3925 693.179 63.0483 692.417 63.517C691.655 63.9858 690.762 64.2202 689.74 64.2202ZM689.747 62.4375C690.41 62.4375 690.959 62.2623 691.394 61.9119C691.83 61.5616 692.152 61.0952 692.36 60.5128C692.573 59.9304 692.68 59.2888 692.68 58.5881C692.68 57.892 692.573 57.2528 692.36 56.6705C692.152 56.0833 691.83 55.6122 691.394 55.2571C690.959 54.902 690.41 54.7244 689.747 54.7244C689.079 54.7244 688.525 54.902 688.085 55.2571C687.649 55.6122 687.325 56.0833 687.112 56.6705C686.903 57.2528 686.799 57.892 686.799 58.5881C686.799 59.2888 686.903 59.9304 687.112 60.5128C687.325 61.0952 687.649 61.5616 688.085 61.9119C688.525 62.2623 689.079 62.4375 689.747 62.4375ZM697.195 64V53.0909H699.248V54.8239H699.361C699.56 54.2367 699.911 53.7751 700.412 53.4389C700.919 53.098 701.492 52.9276 702.131 52.9276C702.264 52.9276 702.42 52.9323 702.6 52.9418C702.785 52.9512 702.929 52.9631 703.033 52.9773V55.0085C702.948 54.9848 702.796 54.9588 702.579 54.9304C702.361 54.8973 702.143 54.8807 701.925 54.8807C701.423 54.8807 700.976 54.9872 700.583 55.2003C700.195 55.4086 699.887 55.6998 699.66 56.0739C699.432 56.4432 699.319 56.8646 699.319 57.3381V64H697.195ZM704.871 64V53.0909H706.994V64H704.871ZM705.07 51.6349L706.732 48.3608H708.969L706.767 51.6349H705.07ZM713.026 64.2415C712.335 64.2415 711.71 64.1136 711.151 63.858C710.592 63.5975 710.15 63.2211 709.823 62.7287C709.501 62.2363 709.34 61.6326 709.34 60.9176C709.34 60.3021 709.458 59.7955 709.695 59.3977C709.932 59 710.251 58.6851 710.654 58.4531C711.056 58.2211 711.506 58.0459 712.003 57.9276C712.501 57.8092 713.007 57.7192 713.523 57.6577C714.177 57.5819 714.707 57.5204 715.114 57.473C715.521 57.4209 715.817 57.3381 716.002 57.2244C716.187 57.1108 716.279 56.9261 716.279 56.6705V56.6207C716.279 56.0005 716.104 55.5199 715.753 55.179C715.408 54.8381 714.892 54.6676 714.205 54.6676C713.49 54.6676 712.927 54.8262 712.515 55.1435C712.108 55.456 711.826 55.804 711.67 56.1875L709.674 55.733C709.911 55.0701 710.256 54.535 710.711 54.1278C711.17 53.7159 711.698 53.4176 712.295 53.233C712.891 53.0436 713.519 52.9489 714.177 52.9489C714.612 52.9489 715.074 53.0009 715.562 53.1051C716.054 53.2045 716.513 53.3892 716.939 53.6591C717.37 53.929 717.723 54.3149 717.998 54.8168C718.272 55.3139 718.41 55.9602 718.41 56.7557V64H716.336V62.5085H716.251C716.113 62.7831 715.907 63.053 715.633 63.3182C715.358 63.5833 715.005 63.8035 714.574 63.9787C714.144 64.1539 713.627 64.2415 713.026 64.2415ZM713.488 62.5369C714.075 62.5369 714.577 62.4209 714.993 62.1889C715.415 61.9569 715.734 61.6539 715.952 61.2798C716.175 60.901 716.286 60.4962 716.286 60.0653V58.6591C716.21 58.7348 716.064 58.8059 715.846 58.8722C715.633 58.9337 715.389 58.9882 715.114 59.0355C714.84 59.0781 714.572 59.1184 714.312 59.1562C714.051 59.1894 713.833 59.2178 713.658 59.2415C713.246 59.2936 712.87 59.3812 712.529 59.5043C712.193 59.6274 711.923 59.8049 711.719 60.0369C711.52 60.2642 711.421 60.5672 711.421 60.946C711.421 61.4716 711.615 61.8693 712.003 62.1392C712.392 62.4044 712.886 62.5369 713.488 62.5369ZM729.413 55.7543L727.488 56.0952C727.408 55.849 727.28 55.6146 727.105 55.392C726.934 55.1695 726.702 54.9872 726.409 54.8452C726.115 54.7031 725.748 54.6321 725.308 54.6321C724.706 54.6321 724.204 54.767 723.802 55.0369C723.4 55.3021 723.198 55.6454 723.198 56.0668C723.198 56.4313 723.333 56.7249 723.603 56.9474C723.873 57.17 724.309 57.3523 724.91 57.4943L726.643 57.892C727.647 58.1241 728.395 58.4815 728.887 58.9645C729.38 59.4474 729.626 60.0748 729.626 60.8466C729.626 61.5 729.436 62.0824 729.058 62.5938C728.684 63.1004 728.16 63.4981 727.488 63.7869C726.82 64.0758 726.046 64.2202 725.166 64.2202C723.944 64.2202 722.947 63.9598 722.176 63.4389C721.404 62.9134 720.93 62.1676 720.755 61.2017L722.808 60.8892C722.936 61.4242 723.198 61.8291 723.596 62.1037C723.994 62.3736 724.512 62.5085 725.151 62.5085C725.847 62.5085 726.404 62.3641 726.82 62.0753C727.237 61.7817 727.445 61.4242 727.445 61.0028C727.445 60.6619 727.318 60.3755 727.062 60.1435C726.811 59.9115 726.425 59.7363 725.904 59.6179L724.058 59.2131C723.04 58.9811 722.287 58.6117 721.799 58.1051C721.316 57.5985 721.075 56.9569 721.075 56.1804C721.075 55.5365 721.255 54.973 721.615 54.4901C721.974 54.0071 722.472 53.6307 723.106 53.3608C723.74 53.0862 724.467 52.9489 725.286 52.9489C726.465 52.9489 727.393 53.2045 728.07 53.7159C728.748 54.2225 729.195 54.902 729.413 55.7543Z" fill="#6FE3ED"/>
<path d="M737.5 54L741.38 57.88L745.26 54C745.65 53.61 746.28 53.61 746.67 54C747.06 54.39 747.06 55.02 746.67 55.41L742.08 60C741.69 60.39 741.06 60.39 740.67 60L736.08 55.41C735.69 55.02 735.69 54.39 736.08 54C736.47 53.62 737.11 53.61 737.5 54Z" fill="#6FE3ED"/>
<path d="M772.069 64H770.222L775.563 49.4545H777.381L782.722 64H780.876L776.529 51.7557H776.415L772.069 64ZM772.751 58.3182H780.194V59.8807H772.751V58.3182ZM789.192 64.2273C788.17 64.2273 787.289 63.9858 786.55 63.5028C785.812 63.0199 785.244 62.3546 784.846 61.5071C784.448 60.6596 784.249 59.6913 784.249 58.6023C784.249 57.4943 784.453 56.5166 784.86 55.669C785.272 54.8168 785.845 54.1515 786.579 53.6733C787.317 53.1903 788.179 52.9489 789.164 52.9489C789.931 52.9489 790.622 53.0909 791.238 53.375C791.853 53.6591 792.358 54.0568 792.751 54.5682C793.144 55.0795 793.388 55.6761 793.482 56.358H791.806C791.678 55.8608 791.394 55.4205 790.954 55.0369C790.518 54.6487 789.931 54.4545 789.192 54.4545C788.539 54.4545 787.966 54.625 787.474 54.9659C786.986 55.3021 786.605 55.7779 786.33 56.3935C786.06 57.0043 785.925 57.7216 785.925 58.5455C785.925 59.3883 786.058 60.1222 786.323 60.7472C786.593 61.3722 786.972 61.8575 787.46 62.2031C787.952 62.5488 788.53 62.7216 789.192 62.7216C789.628 62.7216 790.023 62.6458 790.379 62.4943C790.734 62.3428 791.034 62.125 791.281 61.8409C791.527 61.5568 791.702 61.2159 791.806 60.8182H793.482C793.388 61.4621 793.153 62.0421 792.779 62.5582C792.41 63.0696 791.92 63.4768 791.309 63.7798C790.703 64.0781 789.997 64.2273 789.192 64.2273ZM800.364 64.2273C799.342 64.2273 798.461 63.9858 797.722 63.5028C796.984 63.0199 796.415 62.3546 796.018 61.5071C795.62 60.6596 795.421 59.6913 795.421 58.6023C795.421 57.4943 795.625 56.5166 796.032 55.669C796.444 54.8168 797.017 54.1515 797.751 53.6733C798.489 53.1903 799.351 52.9489 800.336 52.9489C801.103 52.9489 801.794 53.0909 802.41 53.375C803.025 53.6591 803.53 54.0568 803.923 54.5682C804.316 55.0795 804.559 55.6761 804.654 56.358H802.978C802.85 55.8608 802.566 55.4205 802.126 55.0369C801.69 54.6487 801.103 54.4545 800.364 54.4545C799.711 54.4545 799.138 54.625 798.646 54.9659C798.158 55.3021 797.777 55.7779 797.502 56.3935C797.232 57.0043 797.097 57.7216 797.097 58.5455C797.097 59.3883 797.23 60.1222 797.495 60.7472C797.765 61.3722 798.144 61.8575 798.631 62.2031C799.124 62.5488 799.701 62.7216 800.364 62.7216C800.8 62.7216 801.195 62.6458 801.55 62.4943C801.906 62.3428 802.206 62.125 802.452 61.8409C802.699 61.5568 802.874 61.2159 802.978 60.8182H804.654C804.559 61.4621 804.325 62.0421 803.951 62.5582C803.582 63.0696 803.092 63.4768 802.481 63.7798C801.875 64.0781 801.169 64.2273 800.364 64.2273ZM807.104 64V53.0909H808.781V64H807.104ZM807.957 51.2727C807.63 51.2727 807.348 51.1615 807.112 50.9389C806.879 50.7164 806.763 50.4489 806.763 50.1364C806.763 49.8239 806.879 49.5563 807.112 49.3338C807.348 49.1113 807.63 49 807.957 49C808.283 49 808.563 49.1113 808.795 49.3338C809.031 49.5563 809.15 49.8239 809.15 50.1364C809.15 50.4489 809.031 50.7164 808.795 50.9389C808.563 51.1615 808.283 51.2727 807.957 51.2727ZM816.282 64.2273C815.297 64.2273 814.433 63.9929 813.69 63.5241C812.951 63.0554 812.374 62.3996 811.957 61.5568C811.545 60.714 811.339 59.7292 811.339 58.6023C811.339 57.4659 811.545 56.474 811.957 55.6264C812.374 54.7789 812.951 54.1207 813.69 53.652C814.433 53.1832 815.297 52.9489 816.282 52.9489C817.267 52.9489 818.129 53.1832 818.868 53.652C819.611 54.1207 820.189 54.7789 820.6 55.6264C821.017 56.474 821.225 57.4659 821.225 58.6023C821.225 59.7292 821.017 60.714 820.6 61.5568C820.189 62.3996 819.611 63.0554 818.868 63.5241C818.129 63.9929 817.267 64.2273 816.282 64.2273ZM816.282 62.7216C817.03 62.7216 817.646 62.5298 818.129 62.1463C818.612 61.7628 818.969 61.2585 819.201 60.6335C819.433 60.0085 819.549 59.3314 819.549 58.6023C819.549 57.8731 819.433 57.1937 819.201 56.5639C818.969 55.9342 818.612 55.4252 818.129 55.0369C817.646 54.6487 817.03 54.4545 816.282 54.4545C815.534 54.4545 814.919 54.6487 814.436 55.0369C813.953 55.4252 813.595 55.9342 813.363 56.5639C813.131 57.1937 813.015 57.8731 813.015 58.6023C813.015 59.3314 813.131 60.0085 813.363 60.6335C813.595 61.2585 813.953 61.7628 814.436 62.1463C814.919 62.5298 815.534 62.7216 816.282 62.7216ZM825.46 57.4375V64H823.784V53.0909H825.403V54.7955H825.545C825.801 54.2415 826.189 53.7964 826.71 53.4602C827.231 53.1193 827.903 52.9489 828.727 52.9489C829.466 52.9489 830.112 53.1004 830.666 53.4034C831.22 53.7017 831.651 54.1562 831.959 54.767C832.267 55.3731 832.42 56.1402 832.42 57.0682V64H830.744V57.1818C830.744 56.3248 830.522 55.6572 830.077 55.179C829.632 54.696 829.021 54.4545 828.244 54.4545C827.709 54.4545 827.231 54.5705 826.81 54.8026C826.393 55.0346 826.064 55.3731 825.822 55.8182C825.581 56.2633 825.46 56.803 825.46 57.4375ZM840.057 64.2273C839.006 64.2273 838.099 63.9953 837.337 63.5312C836.579 63.0625 835.995 62.4091 835.583 61.571C835.176 60.7282 834.972 59.7481 834.972 58.6307C834.972 57.5133 835.176 56.5284 835.583 55.6761C835.995 54.8191 836.568 54.1515 837.301 53.6733C838.04 53.1903 838.902 52.9489 839.887 52.9489C840.455 52.9489 841.016 53.0436 841.57 53.233C842.124 53.4223 842.628 53.7301 843.083 54.1562C843.537 54.5777 843.9 55.1364 844.169 55.8324C844.439 56.5284 844.574 57.3854 844.574 58.4034V59.1136H836.165V57.6648H842.87C842.87 57.0492 842.747 56.5 842.5 56.017C842.259 55.5341 841.913 55.1529 841.463 54.8736C841.018 54.5942 840.493 54.4545 839.887 54.4545C839.219 54.4545 838.641 54.6203 838.154 54.9517C837.671 55.2784 837.299 55.7045 837.039 56.2301C836.778 56.7557 836.648 57.3191 836.648 57.9205V58.8864C836.648 59.7102 836.79 60.4086 837.074 60.9815C837.363 61.5497 837.763 61.983 838.275 62.2812C838.786 62.5748 839.38 62.7216 840.057 62.7216C840.498 62.7216 840.895 62.66 841.25 62.5369C841.61 62.4091 841.92 62.2197 842.181 61.9688C842.441 61.7131 842.642 61.3958 842.784 61.017L844.404 61.4716C844.233 62.0208 843.947 62.5038 843.544 62.9205C843.142 63.3324 842.645 63.6544 842.053 63.8864C841.461 64.1136 840.796 64.2273 840.057 64.2273ZM854.851 55.5341L853.346 55.9602C853.251 55.7093 853.111 55.4654 852.926 55.2287C852.747 54.9872 852.5 54.7884 852.188 54.6321C851.875 54.4759 851.475 54.3977 850.988 54.3977C850.32 54.3977 849.764 54.5516 849.319 54.8594C848.878 55.1624 848.658 55.5483 848.658 56.017C848.658 56.4337 848.81 56.7628 849.113 57.0043C849.416 57.2457 849.889 57.447 850.533 57.608L852.152 58.0057C853.128 58.2424 853.855 58.6046 854.333 59.0923C854.811 59.5753 855.05 60.1979 855.05 60.9602C855.05 61.5852 854.87 62.1439 854.51 62.6364C854.155 63.1288 853.658 63.517 853.019 63.8011C852.38 64.0852 851.636 64.2273 850.789 64.2273C849.676 64.2273 848.755 63.9858 848.026 63.5028C847.297 63.0199 846.835 62.3144 846.641 61.3864L848.232 60.9886C848.383 61.5758 848.67 62.0161 849.091 62.3097C849.517 62.6032 850.074 62.75 850.76 62.75C851.542 62.75 852.162 62.5843 852.621 62.2528C853.085 61.9167 853.317 61.5142 853.317 61.0455C853.317 60.6667 853.185 60.3494 852.919 60.0938C852.654 59.8333 852.247 59.6392 851.698 59.5114L849.88 59.0852C848.881 58.8485 848.147 58.4815 847.678 57.9844C847.214 57.4825 846.982 56.8551 846.982 56.1023C846.982 55.4867 847.155 54.9422 847.5 54.4688C847.851 53.9953 848.327 53.6236 848.928 53.3537C849.534 53.0838 850.221 52.9489 850.988 52.9489C852.067 52.9489 852.915 53.1856 853.53 53.6591C854.15 54.1326 854.591 54.7576 854.851 55.5341Z" fill="white"/>
<path d="M864.25 54L868.13 57.88L872.01 54C872.4 53.61 873.03 53.61 873.42 54C873.81 54.39 873.81 55.02 873.42 55.41L868.83 60C868.44 60.39 867.81 60.39 867.42 60L862.83 55.41C862.44 55.02 862.44 54.39 862.83 54C863.22 53.62 863.86 53.61 864.25 54Z" fill="white"/>
<rect x="626" y="74" width="120" height="3" fill="#6FE3ED"/>
<defs>
<clipPath id="clip0_13_1181">
<rect width="246" height="37" fill="white" transform="translate(127 38)"/>
</clipPath>
<clipPath id="clip1_13_1181">
<rect width="42" height="42" fill="white" transform="translate(1205 36)"/>
</clipPath>
</defs>
</svg>
