<svg width="77" height="88" viewBox="0 0 77 88" fill="none" xmlns="http://www.w3.org/2000/svg">
<path d="M58.88 12.32H69.83C72.84 12.32 75.31 14.78 75.31 17.8V80.78C75.31 83.79 72.85 86.26 69.83 86.26H6.85C3.84 86.26 1.37 83.8 1.37 80.78V17.8C1.37 14.79 3.83 12.32 6.85 12.32H17.8M32.86 26.02L21.91 61.76L28.76 64.22M33.96 20.13C32.73 20.13 31.77 19.17 31.77 18.08L30.67 12.88C30.67 11.78 31.63 10.83 32.86 10.83H43.81C45.04 10.83 46 11.79 46 12.88L44.9 18.08C44.9 19.18 43.94 20.13 42.71 20.13M41.62 24.24C42.85 24.24 43.81 25.2 43.81 26.29L49.29 75.17C49.29 76.27 38.34 82.84 38.34 82.84C38.34 82.84 27.39 76.4 27.39 75.17L32.87 26.29C32.87 25.19 33.83 24.24 35.06 24.24M52.03 2.74L46.55 10.96L54.77 21.91C56.55 21.91 58.88 10.68 58.88 10.68C58.88 10.68 54.36 2.74 52.58 2.74C52.58 2.74 46.56 1.37 38.34 1.37C30.12 1.37 24.1 2.74 24.1 2.74C22.32 2.74 17.8 10.68 17.8 10.68C17.8 10.68 20.13 21.91 21.91 21.91L31.49 10.96L24.65 2.74M36.42 26.02C34.91 26.02 34.37 25.2 34.37 24.24V20.82C34.37 19.86 34.92 19.04 36.42 19.04H40.39C41.9 19.04 42.44 19.86 42.44 20.82V24.24C42.44 25.2 41.89 26.02 40.39 26.02H36.42Z" stroke="url(#paint0_linear_237_159)" stroke-width="2.74" stroke-miterlimit="5.48"/>
<defs>
<linearGradient id="paint0_linear_237_159" x1="38.34" y1="1.37" x2="38.34" y2="93" gradientUnits="userSpaceOnUse">
<stop offset="0.54" stop-color="#0098FD"/>
<stop offset="1" stop-color="#6FE3ED"/>
</linearGradient>
</defs>
</svg>