<svg width="89" height="89" viewBox="0 0 93 83" fill="none" xmlns="http://www.w3.org/2000/svg">
<path d="M92.7297 27.0424C92.3639 28.4319 92.1646 29.8594 91.6937 31.2289C90.4567 34.8284 88.5768 38.0856 86.4053 41.1779C81.68 47.9077 75.9877 53.768 69.9566 59.3186C65.4451 63.4688 60.7633 67.4161 55.953 71.2149C53.7343 72.9667 51.3092 73.4232 48.6596 72.4631C48.1198 72.2674 47.9713 72.5192 47.7486 72.858C46.2363 75.1514 44.6352 77.385 42.8332 79.4592C39.1747 83.6728 33.006 84.1801 28.6973 80.6186C28.2518 80.2508 28.0272 80.2635 27.5871 80.6204C23.3563 84.0514 17.2437 83.7725 13.7664 79.7817C7.87297 73.0192 3.65667 65.2568 0.662873 56.8204C0.344114 55.9292 0.215524 54.9654 0 54.0343C0 52.9474 0 51.8605 0 50.7735C0.0615783 50.4837 0.130401 50.1957 0.182924 49.904C1.40906 43.2086 5.26132 38.7993 11.727 36.6907C13.0202 36.2686 13.0691 36.2994 12.4153 35.0512C9.96301 30.3612 9.15525 25.4537 10.2981 20.2438C11.7216 13.7512 15.0142 8.43798 20.4531 4.61745C27.0329 -0.00558538 34.2593 -1.11605 41.9711 1.24075C45.2166 2.23347 48.0945 3.91095 50.6355 6.15726C51.0774 6.54855 51.3944 6.60289 51.8435 6.17537C52.6966 5.3638 53.6474 4.66274 54.6435 4.03414C61.1817 -0.085293 68.1998 -1.16315 75.515 1.3259C84.2917 4.31312 89.6925 10.5647 92.0252 19.5155C92.3765 20.8615 92.4273 22.2509 92.7315 23.6005V27.0424H92.7297ZM29.7134 39.6181C30.1408 39.3192 30.474 39.0656 30.8272 38.8428C36.4018 35.2958 42.1884 34.9335 47.9641 38.1345C55.3462 42.2267 58.1825 50.8677 54.955 58.7678C53.6202 62.034 52.175 65.2495 50.4689 68.3418C50.0143 69.1661 50.0849 69.2639 51.0448 69.32C52.0301 69.3762 52.8704 69.0302 53.6329 68.427C62.281 61.5775 70.6159 54.3839 77.931 46.0889C81.3486 42.2122 84.5072 38.1308 86.8218 33.4734C88.2562 30.5858 89.3049 27.5986 89.0803 24.2799C88.7199 18.9666 86.7874 14.3526 83.2177 10.3944C77.4492 4.00334 67.6927 1.88747 59.8197 5.35113C57.7025 6.28226 55.8063 7.53765 54.044 9.02854C52.1206 10.6571 50.3946 10.6227 48.435 9.01767C48.109 8.74956 47.7975 8.45972 47.4624 8.20429C42.0978 4.11747 36.1175 2.67911 29.5558 4.34029C22.6934 6.07755 17.9338 10.4089 15.141 16.8544C13.6831 20.2202 13.0347 23.7799 13.5925 27.4627C14.0471 30.4662 15.4344 33.1165 16.8779 35.736C17.0789 36.1001 17.4158 36.0729 17.7418 36.0983C19.8119 36.2613 21.7643 36.8573 23.6225 37.7577C24.2582 38.0656 24.8487 38.466 25.6764 38.9497C25.2797 37.8609 24.798 37.1182 24.1894 36.4624C23.4505 35.6672 22.6463 34.9299 21.9237 34.1201C21.1884 33.2959 21.2047 32.2941 21.8839 31.5876C22.5685 30.8757 23.5936 30.8104 24.4049 31.5477C25.6763 32.7035 26.9007 33.9118 27.8841 35.3411C28.7643 36.6218 29.2823 38.0584 29.7188 39.6163L29.7134 39.6181ZM33.4859 41.5075C33.8011 41.609 33.9985 41.6742 34.1941 41.7376C36.1465 42.368 37.8815 43.368 39.3612 44.7955C42.6394 47.9602 43.5558 51.9293 43.2515 56.3024C43.1755 57.4038 42.5778 58.0016 41.4694 58.1121C40.7812 58.1809 40.0821 58.1519 39.3884 58.1465C32.1783 58.0813 26.8626 53.1938 26.4171 46.0002C26.3193 44.4296 25.7343 43.5328 24.5625 42.638C21.6756 40.4351 18.5278 39.3301 14.8712 39.6924C8.70609 40.3047 3.64399 45.9023 3.62407 52.0978C3.61501 54.7789 4.5731 57.1556 5.58371 59.5541C8.15551 65.6517 11.4807 71.2928 15.63 76.4502C17.3488 78.5879 19.4805 79.682 22.2678 79.2327C23.6569 79.0099 24.778 78.2799 25.8249 77.3777C27.3444 76.0698 28.9273 76.0916 30.4776 77.3759C30.8942 77.7219 31.3053 78.0879 31.7672 78.3632C34.8026 80.1711 38.184 79.4628 40.5439 76.577C45.3035 70.7566 48.8823 64.2568 51.6407 57.286C53.057 53.7046 52.97 50.1848 51.3165 46.6795C48.2376 40.1489 39.7289 37.6164 33.4841 41.5075H33.4859ZM30.8435 44.8245C29.9234 44.7882 29.9053 44.8045 29.9597 45.6868C30.2639 50.6322 33.8916 54.2426 38.7925 54.5198C39.4717 54.5578 39.6746 54.3912 39.6546 53.6901C39.5152 48.962 35.6176 45.0183 30.8435 44.8263V44.8245Z" fill="url(#paint0_linear_20_1354)"/>
<path d="M63.6394 37.1997C63.9962 37.0077 64.0016 36.6707 64.103 36.4063C65.2766 33.3393 66.4358 30.2688 67.6039 27.2C68.1328 25.8106 68.6019 25.4863 70.1142 25.4845C73.5535 25.4791 76.9928 25.4791 80.4322 25.4863C80.7908 25.4863 81.1584 25.5135 81.508 25.5878C82.3338 25.7653 82.9297 26.5443 82.8989 27.3558C82.8681 28.191 82.2542 28.95 81.4066 29.0279C80.4485 29.1167 79.4795 29.0967 78.516 29.1022C76.2539 29.1112 73.99 29.1329 71.7279 29.0895C71.0234 29.0768 70.6792 29.2598 70.4184 29.9644C68.8228 34.2868 67.1638 38.5874 65.5266 42.8952C65.4632 43.0637 65.3998 43.2339 65.3328 43.4024C64.9941 44.2593 64.4381 44.848 63.4456 44.7937C62.5074 44.7429 61.9985 44.1614 61.7359 43.3028C61.2089 41.5746 60.6655 39.85 60.133 38.1236C58.5067 32.8575 56.8821 27.5895 55.2539 22.3234C55.1832 22.097 55.0963 21.8741 54.9659 21.501C54.0585 23.481 53.1367 25.3088 52.3832 27.2055C51.8218 28.6203 50.9488 29.1692 49.4239 29.1329C45.8958 29.0478 42.3641 29.1076 38.8342 29.1022C38.443 29.1022 38.0464 29.0967 37.6624 29.0297C36.8365 28.8848 36.2262 28.1185 36.2316 27.2942C36.237 26.5008 36.8057 25.7599 37.5954 25.595C38.0047 25.5099 38.4321 25.4881 38.8523 25.4863C42.02 25.4773 45.1876 25.4664 48.3553 25.4954C48.9548 25.5008 49.2536 25.3215 49.5035 24.7599C50.8202 21.7854 52.1804 18.8289 53.5442 15.8743C54.0676 14.7421 54.9677 14.3146 55.9276 14.666C56.7046 14.9504 56.9835 15.6008 57.2008 16.3091C58.7783 21.4339 60.3576 26.5569 61.9369 31.68C62.502 33.5132 63.0689 35.3447 63.6412 37.1997H63.6394Z" fill="url(#paint1_linear_20_1354)"/>
<path d="M29.6445 29.0768C28.6557 29.0804 27.8606 28.2942 27.8588 27.3087C27.857 26.3287 28.6557 25.5189 29.6319 25.5171C30.5954 25.5153 31.4231 26.3341 31.4285 27.2961C31.4321 28.2616 30.6225 29.0713 29.6463 29.0768H29.6445Z" fill="url(#paint2_linear_20_1354)"/>
<defs>
<linearGradient id="paint0_linear_20_1354" x1="46.3658" y1="0" x2="46.3658" y2="83" gradientUnits="userSpaceOnUse">
<stop offset="0.705" stop-color="#0098FD"/>
<stop offset="1" stop-color="#6FE3ED"/>
</linearGradient>
<linearGradient id="paint1_linear_20_1354" x1="59.5658" y1="14.5462" x2="59.5658" y2="44.7971" gradientUnits="userSpaceOnUse">
<stop offset="0.705" stop-color="#0098FD"/>
<stop offset="1" stop-color="#6FE3ED"/>
</linearGradient>
<linearGradient id="paint2_linear_20_1354" x1="29.6436" y1="25.5171" x2="29.6436" y2="29.0768" gradientUnits="userSpaceOnUse">
<stop offset="0.705" stop-color="#0098FD"/>
<stop offset="1" stop-color="#6FE3ED"/>
</linearGradient>
</defs>
</svg>
