<svg width="42" height="42" viewBox="0 0 42 42" fill="none" xmlns="http://www.w3.org/2000/svg">
<g clip-path="url(#clip0_11_818)">
<path d="M0.00722945 17.6719C-0.0963122 9.20086 6.08702 1.53086 15.0135 0.187955C22.1301 -0.884038 29.4816 2.71355 32.8387 9.10473C36.2643 15.627 35.751 21.9701 31.5145 27.9928C31.1791 28.4691 31.2506 28.7006 31.6224 29.0691C34.8497 32.2676 38.0581 35.4851 41.2766 38.6938C41.6733 39.09 41.9854 39.5153 41.9999 40.1081C42.0189 40.8713 41.7185 41.4612 41.0287 41.7962C40.352 42.1268 39.6841 42.054 39.0789 41.5937C38.9068 41.4626 38.7551 41.3024 38.6006 41.148C35.4097 37.9641 32.2145 34.783 29.0397 31.5845C28.6679 31.2102 28.4345 31.184 28.0029 31.5088C24.4693 34.1655 20.4647 35.2957 16.0722 34.9738C8.19577 34.3985 1.55744 28.2914 0.231813 20.4641C0.0670211 19.4955 -0.0292289 18.5211 0.00722945 17.6719ZM17.4854 31.4374C25.2554 31.334 31.4168 25.2851 31.4124 17.5175C31.4081 9.72666 25.2422 3.64717 17.532 3.63261C9.87431 3.61804 3.64285 9.63198 3.60202 17.4709C3.56119 25.1235 9.6089 31.2947 17.4854 31.436V31.4374Z" fill="url(#paint0_linear_11_818)"/>
</g>
<defs>
<linearGradient id="paint0_linear_11_818" x1="21.0002" y1="0.000442505" x2="21.0002" y2="42.0005" gradientUnits="userSpaceOnUse">
<stop offset="0.5" stop-color="#01A1FD"/>
<stop offset="1" stop-color="#01FEFF"/>
</linearGradient>
<clipPath id="clip0_11_818">
<rect width="42" height="42" fill="white"/>
</clipPath>
</defs>
</svg>
