<svg width="42" height="42" viewBox="0 0 42 42" fill="none" xmlns="http://www.w3.org/2000/svg">
<g clip-path="url(#clip0_104_86)">
<path d="M0.00719893 17.6719C-0.0963427 9.20084 6.08699 1.53084 15.0134 0.18794C22.1301 -0.884053 29.4816 2.71353 32.8387 9.10471C36.2643 15.627 35.751 21.9701 31.5145 27.9928C31.1791 28.469 31.2505 28.7006 31.6224 29.0691C34.8497 32.2676 38.058 35.4851 41.2766 38.6938C41.6732 39.0899 41.9853 39.5152 41.9999 40.108C42.0189 40.8713 41.7185 41.4611 41.0287 41.7961C40.352 42.1268 39.6841 42.0539 39.0789 41.5937C38.9068 41.4626 38.7551 41.3024 38.6005 41.148C35.4097 37.9641 32.2145 34.783 29.0397 31.5845C28.6678 31.2102 28.4345 31.184 28.0028 31.5088C24.4693 34.1655 20.4647 35.2957 16.0722 34.9738C8.19574 34.3985 1.55741 28.2914 0.231782 20.4641C0.0669906 19.4955 -0.0292594 18.5211 0.00719893 17.6719ZM17.4853 31.4374C25.2553 31.334 31.4168 25.2851 31.4124 17.5175C31.408 9.72664 25.2422 3.64716 17.532 3.63259C9.87428 3.61803 3.64282 9.63197 3.60199 17.4709C3.56116 25.1234 9.60887 31.2947 17.4853 31.436V31.4374Z" fill="white"/>
</g>
<defs>
<clipPath id="clip0_104_86">
<rect width="42" height="42" fill="white"/>
</clipPath>
</defs>
</svg>
