<svg width="89" height="65" viewBox="0 0 89 65" fill="none" xmlns="http://www.w3.org/2000/svg">
<path d="M83.61 17.99H66.72V15.38H83.61V17.99ZM83.61 19.69H66.72V22.3H83.61V19.69ZM83.6 7.86H66.73V13.61H83.6V7.86ZM89 1.68V63.29C89 64.21 88.24 64.97 87.32 64.97H63.02C62.09 64.97 61.34 64.22 61.34 63.29V1.68C61.34 0.76 62.09 0 63.02 0H87.32C88.25 0 89 0.76 89 1.68ZM85.64 3.35H64.7V61.61H85.64V3.35ZM83.61 24H66.72V26.61H83.61V24ZM80.86 43.44C80.86 46.44 78.43 48.87 75.44 48.87C72.45 48.87 70.01 46.44 70.01 43.44C70.01 40.44 72.44 38.02 75.44 38.02C78.43 38.02 80.86 40.45 80.86 43.44ZM78.9 43.44C78.9 41.53 77.35 39.97 75.43 39.97C73.51 39.97 71.96 41.52 71.96 43.44C71.96 45.36 73.51 46.9 75.43 46.9C77.35 46.9 78.9 45.35 78.9 43.44ZM56.72 11.82V46.74C56.72 48.84 55.03 50.55 52.94 50.55H34.07C34.07 50.55 33 58.17 39.79 58.17V61.98H16.93V58.17C23.47 58.17 22.65 50.55 22.65 50.55H3.79C1.7 50.55 0 48.85 0 46.74V11.82C0 9.71 1.7 8.02 3.79 8.02H52.94C55.03 8.02 56.72 9.72 56.72 11.82ZM31.89 45.89C31.89 44.09 30.43 42.62 28.62 42.62C26.81 42.62 25.35 44.08 25.35 45.89C25.35 47.7 26.81 49.16 28.62 49.16C30.43 49.16 31.89 47.69 31.89 45.89ZM52.67 12.06H4.05V41.5H52.67V12.06ZM28.65 43.84C27.53 43.84 26.62 44.75 26.62 45.87C26.62 46.99 27.53 47.9 28.65 47.9C29.77 47.9 30.68 46.99 30.68 45.87C30.68 44.75 29.77 43.84 28.65 43.84Z" fill="url(#paint0_linear_237_158)"/>
<defs>
<linearGradient id="paint0_linear_237_158" x1="44.5" y1="0" x2="44.5" y2="64.97" gradientUnits="userSpaceOnUse">
<stop offset="0.585" stop-color="#0098FD"/>
<stop offset="1" stop-color="#6FE3ED"/>
</linearGradient>
</defs>
</svg>