<?xml version="1.0" encoding="utf-8"?>
<!-- Generator: Adobe Illustrator 27.0.0, SVG Export Plug-In . SVG Version: 6.00 Build 0)  -->
<svg version="1.1" id="Layer_1" xmlns="http://www.w3.org/2000/svg" xmlns:xlink="http://www.w3.org/1999/xlink" x="0px" y="0px"
 viewBox="0 0 512 512" style="enable-background:new 0 0 512 512;" xml:space="preserve">
<style type="text/css">
.st0{fill:#FFFFFF;}
</style>
<g id="Layer_1_00000133524912347668010540000002480196682000099518_">
<path class="st0" d="M301.2,256l153.4-153.4c12.5-12.5,12.5-32.8,0-45.2c-12.5-12.5-32.8-12.5-45.2,0L256,210.8L102.6,57.4
c-12.5-12.5-32.8-12.5-45.2,0c-12.5,12.5-12.5,32.8,0,45.2L210.8,256L57.4,409.4c-12.4,12.4-12.4,32.8,0,45.2s32.8,12.4,45.2,0
L256,301.2l153.4,153.4c12.4,12.4,32.8,12.4,45.2,0s12.4-32.8,0-45.2L301.2,256z"/>
</g>
</svg>